<svg width="275" height="72" viewBox="0 0 275 72" fill="none" xmlns="http://www.w3.org/2000/svg">
<g clip-path="url(#clip0_65_127)">
<path d="M210.133 50.1635V31.3813H32.0001V34.5131H28.8736V47.0346H32.0001V50.1635H210.133Z" fill="#FBB03B"/>
<path d="M60.1273 28.2524H57.0008V31.3843H60.1273V28.2524Z" fill="black"/>
<path d="M63.2509 28.2524H60.1244V31.3842H63.2509V28.2524Z" fill="black"/>
<path d="M66.3773 28.2524H63.2508V31.3842H66.3773V28.2524Z" fill="black"/>
<path d="M69.5007 28.2524H66.3742V31.3842H69.5007V28.2524Z" fill="black"/>
<path d="M72.6273 28.2524H69.5008V31.3842H72.6273V28.2524Z" fill="black"/>
<path d="M75.7515 28.2524H72.625V31.3842H75.7515V28.2524Z" fill="black"/>
<path d="M78.8773 28.2524H75.7508V31.3842H78.8773V28.2524Z" fill="black"/>
<path d="M82.0039 28.2524H78.8774V31.3842H82.0039V28.2524Z" fill="black"/>
<path d="M85.1281 28.2524H82.0016V31.3842H85.1281V28.2524Z" fill="black"/>
<path d="M88.2538 28.2524H85.1273V31.3842H88.2538V28.2524Z" fill="black"/>
<path d="M91.3781 28.2524H88.2516V31.3842H91.3781V28.2524Z" fill="black"/>
<path d="M94.5046 28.2524H91.3781V31.3842H94.5046V28.2524Z" fill="black"/>
<path d="M97.6279 28.2524H94.5014V31.3842H97.6279V28.2524Z" fill="black"/>
<path d="M100.754 28.2524H97.6279V31.3842H100.754V28.2524Z" fill="black"/>
<path d="M103.878 28.2524H100.751V31.3842H103.878V28.2524Z" fill="black"/>
<path d="M107.005 28.2524H103.878V31.3842H107.005V28.2524Z" fill="black"/>
<path d="M110.128 28.2524H107.002V31.3842H110.128V28.2524Z" fill="black"/>
<path d="M113.255 28.2524H110.128V31.3842H113.255V28.2524Z" fill="black"/>
<path d="M116.378 28.2524H113.252V31.3842H116.378V28.2524Z" fill="black"/>
<path d="M119.505 28.2524H116.378V31.3842H119.505V28.2524Z" fill="black"/>
<path d="M122.631 28.2524H119.505V31.3842H122.631V28.2524Z" fill="black"/>
<path d="M125.755 28.2524H122.628V31.3842H125.755V28.2524Z" fill="black"/>
<path d="M128.881 28.2524H125.755V31.3842H128.881V28.2524Z" fill="black"/>
<path d="M132.005 28.2524H128.878V31.3842H132.005V28.2524Z" fill="black"/>
<path d="M135.131 28.2524H132.005V31.3842H135.131V28.2524Z" fill="black"/>
<path d="M138.255 28.2524H135.129V31.3842H138.255V28.2524Z" fill="black"/>
<path d="M141.382 28.2524H138.255V31.3842H141.382V28.2524Z" fill="black"/>
<path d="M144.505 28.2524H141.379V31.3842H144.505V28.2524Z" fill="black"/>
<path d="M147.632 28.2524H144.505V31.3842H147.632V28.2524Z" fill="black"/>
<path d="M150.755 28.2524H147.629V31.3842H150.755V28.2524Z" fill="black"/>
<path d="M153.882 28.2524H150.755V31.3842H153.882V28.2524Z" fill="black"/>
<path d="M157.005 28.2524H153.879V31.3842H157.005V28.2524Z" fill="black"/>
<path d="M160.132 28.2524H157.005V31.3842H160.132V28.2524Z" fill="black"/>
<path d="M163.258 28.2524H160.132V31.3842H163.258V28.2524Z" fill="black"/>
<path d="M166.382 28.2524H163.256V31.3842H166.382V28.2524Z" fill="black"/>
<path d="M169.509 28.2524H166.382V31.3842H169.509V28.2524Z" fill="black"/>
<path d="M172.632 28.2524H169.505V31.3842H172.632V28.2524Z" fill="black"/>
<path d="M175.759 28.2524H172.632V31.3842H175.759V28.2524Z" fill="black"/>
<path d="M178.882 28.2524H175.755V31.3842H178.882V28.2524Z" fill="black"/>
<path d="M182.008 28.2524H178.882V31.3842H182.008V28.2524Z" fill="black"/>
<path d="M185.133 28.2524H182.006V31.3842H185.133V28.2524Z" fill="black"/>
<path d="M188.258 28.2524H185.132V31.3842H188.258V28.2524Z" fill="black"/>
<path d="M191.383 28.2524H188.256V31.3842H191.383V28.2524Z" fill="black"/>
<path d="M194.509 28.2524H191.383V31.3842H194.509V28.2524Z" fill="black"/>
<path d="M197.633 28.2524H194.506V31.3842H197.633V28.2524Z" fill="black"/>
<path d="M200.759 28.2524H197.633V31.3842H200.759V28.2524Z" fill="black"/>
<path d="M203.886 28.2524H200.759V31.3842H203.886V28.2524Z" fill="black"/>
<path d="M207.009 28.2524H203.883V31.3842H207.009V28.2524Z" fill="black"/>
<path d="M210.136 28.2524H207.009V31.3842H210.136V28.2524Z" fill="black"/>
<path d="M213.259 28.2524H210.133V31.3842H213.259V28.2524Z" fill="black"/>
<path d="M216.386 28.2524H213.259V31.3842H216.386V28.2524Z" fill="black"/>
<path d="M219.51 28.2524H216.383V31.3842H219.51V28.2524Z" fill="black"/>
<path d="M210.136 31.3812H207.009V34.513H210.136V31.3812Z" fill="#FBB03B"/>
<path d="M213.259 31.3812H210.133V34.513H213.259V31.3812Z" fill="#FBB03B"/>
<path d="M216.386 31.3812H213.259V34.513H216.386V31.3812Z" fill="#FBB03B"/>
<path d="M210.136 34.5131H207.009V37.6449H210.136V34.5131Z" fill="#FDD495"/>
<path d="M213.259 34.5131H210.133V37.6449H213.259V34.5131Z" fill="#FDD495"/>
<path d="M213.259 37.642H210.133V40.7738H213.259V37.642Z" fill="#FBB03B"/>
<path d="M222.636 28.2524H219.509V31.3842H222.636V28.2524Z" fill="black"/>
<path d="M219.51 31.3812H216.383V34.513H219.51V31.3812Z" fill="#FBB03B"/>
<path d="M216.386 34.5131H213.259V37.6449H216.386V34.5131Z" fill="#FDD495"/>
<path d="M210.136 37.642H207.009V40.7738H210.136V37.642Z" fill="#FBB03B"/>
<path d="M210.136 40.7739H207.009V43.9057H210.136V40.7739Z" fill="#FBB03B"/>
<path d="M216.386 37.642H213.259V40.7738H216.386V37.642Z" fill="#FBB03B"/>
<path d="M225.759 28.2524H222.633V31.3842H225.759V28.2524Z" fill="black"/>
<path d="M222.636 31.3812H219.509V34.513H222.636V31.3812Z" fill="#FBB03B"/>
<path d="M219.51 34.5131H216.383V37.6449H219.51V34.5131Z" fill="#FDD495"/>
<path d="M213.259 40.7739H210.133V43.9057H213.259V40.7739Z" fill="#FBB03B"/>
<path d="M210.136 43.9027H207.009V47.0345H210.136V43.9027Z" fill="#FBB03B"/>
<path d="M219.51 37.642H216.383V40.7738H219.51V37.642Z" fill="#FBB03B"/>
<path d="M228.886 28.2524H225.76V31.3842H228.886V28.2524Z" fill="black"/>
<path d="M225.759 31.3812H222.633V34.513H225.759V31.3812Z" fill="#FBB03B"/>
<path d="M222.636 34.5131H219.509V37.6449H222.636V34.5131Z" fill="#FDD495"/>
<path d="M216.386 40.7739H213.259V43.9057H216.386V40.7739Z" fill="#FBB03B"/>
<path d="M213.259 43.9027H210.133V47.0345H213.259V43.9027Z" fill="#FBB03B"/>
<path d="M210.136 47.0346H207.009V50.1664H210.136V47.0346Z" fill="#FA9600"/>
<path d="M222.636 37.642H219.509V40.7738H222.636V37.642Z" fill="black"/>
<path d="M228.886 31.3812H225.76V34.513H228.886V31.3812Z" fill="black"/>
<path d="M225.759 34.5134H222.633V37.6452H225.759V34.5134Z" fill="black"/>
<path d="M219.51 40.7739H216.383V43.9057H219.51V40.7739Z" fill="black"/>
<path d="M216.386 43.9027H213.259V47.0345H216.386V43.9027Z" fill="black"/>
<path d="M213.259 47.0346H210.133V50.1664H213.259V47.0346Z" fill="black"/>
<path d="M210.136 50.1635H207.009V53.2953H210.136V50.1635Z" fill="black"/>
<path d="M60.1273 50.1635H57.0008V53.2953H60.1273V50.1635Z" fill="black"/>
<path d="M63.2509 50.1635H60.1244V53.2953H63.2509V50.1635Z" fill="black"/>
<path d="M66.3773 50.1635H63.2508V53.2953H66.3773V50.1635Z" fill="black"/>
<path d="M69.5007 50.1635H66.3742V53.2953H69.5007V50.1635Z" fill="black"/>
<path d="M72.6273 50.1635H69.5008V53.2953H72.6273V50.1635Z" fill="black"/>
<path d="M75.7515 50.1635H72.625V53.2953H75.7515V50.1635Z" fill="black"/>
<path d="M78.8773 50.1635H75.7508V53.2953H78.8773V50.1635Z" fill="black"/>
<path d="M82.0039 50.1635H78.8774V53.2953H82.0039V50.1635Z" fill="black"/>
<path d="M85.1281 50.1635H82.0016V53.2953H85.1281V50.1635Z" fill="black"/>
<path d="M88.2538 50.1635H85.1273V53.2953H88.2538V50.1635Z" fill="black"/>
<path d="M91.378 50.1635H88.2515V53.2953H91.378V50.1635Z" fill="black"/>
<path d="M94.5046 50.1635H91.3781V53.2953H94.5046V50.1635Z" fill="black"/>
<path d="M97.6279 50.1635H94.5014V53.2953H97.6279V50.1635Z" fill="black"/>
<path d="M100.754 50.1635H97.6279V53.2953H100.754V50.1635Z" fill="black"/>
<path d="M103.878 50.1635H100.751V53.2953H103.878V50.1635Z" fill="black"/>
<path d="M107.005 50.1635H103.878V53.2953H107.005V50.1635Z" fill="black"/>
<path d="M110.128 50.1635H107.002V53.2953H110.128V50.1635Z" fill="black"/>
<path d="M113.255 50.1635H110.128V53.2953H113.255V50.1635Z" fill="black"/>
<path d="M116.378 50.1635H113.252V53.2953H116.378V50.1635Z" fill="black"/>
<path d="M119.505 50.1635H116.378V53.2953H119.505V50.1635Z" fill="black"/>
<path d="M122.631 50.1635H119.505V53.2953H122.631V50.1635Z" fill="black"/>
<path d="M125.755 50.1635H122.628V53.2953H125.755V50.1635Z" fill="black"/>
<path d="M128.881 50.1635H125.755V53.2953H128.881V50.1635Z" fill="black"/>
<path d="M132.005 50.1635H128.878V53.2953H132.005V50.1635Z" fill="black"/>
<path d="M135.131 50.1635H132.005V53.2953H135.131V50.1635Z" fill="black"/>
<path d="M138.255 50.1635H135.129V53.2953H138.255V50.1635Z" fill="black"/>
<path d="M141.382 50.1635H138.255V53.2953H141.382V50.1635Z" fill="black"/>
<path d="M144.505 50.1635H141.379V53.2953H144.505V50.1635Z" fill="black"/>
<path d="M147.632 50.1635H144.505V53.2953H147.632V50.1635Z" fill="black"/>
<path d="M150.755 50.1635H147.629V53.2953H150.755V50.1635Z" fill="black"/>
<path d="M153.882 50.1635H150.755V53.2953H153.882V50.1635Z" fill="black"/>
<path d="M157.005 50.1635H153.879V53.2953H157.005V50.1635Z" fill="black"/>
<path d="M160.132 50.1635H157.005V53.2953H160.132V50.1635Z" fill="black"/>
<path d="M163.258 50.1635H160.132V53.2953H163.258V50.1635Z" fill="black"/>
<path d="M166.382 50.1635H163.256V53.2953H166.382V50.1635Z" fill="black"/>
<path d="M169.509 50.1635H166.382V53.2953H169.509V50.1635Z" fill="black"/>
<path d="M172.632 50.1635H169.505V53.2953H172.632V50.1635Z" fill="black"/>
<path d="M175.759 50.1635H172.632V53.2953H175.759V50.1635Z" fill="black"/>
<path d="M178.882 50.1635H175.755V53.2953H178.882V50.1635Z" fill="black"/>
<path d="M182.008 50.1635H178.882V53.2953H182.008V50.1635Z" fill="black"/>
<path d="M185.133 50.1635H182.006V53.2953H185.133V50.1635Z" fill="black"/>
<path d="M188.258 50.1635H185.132V53.2953H188.258V50.1635Z" fill="black"/>
<path d="M191.383 50.1635H188.256V53.2953H191.383V50.1635Z" fill="black"/>
<path d="M194.509 50.1635H191.383V53.2953H194.509V50.1635Z" fill="black"/>
<path d="M197.633 50.1635H194.506V53.2953H197.633V50.1635Z" fill="black"/>
<path d="M200.759 50.1635H197.633V53.2953H200.759V50.1635Z" fill="black"/>
<path d="M203.886 50.1635H200.759V53.2953H203.886V50.1635Z" fill="black"/>
<path d="M207.009 50.1635H203.883V53.2953H207.009V50.1635Z" fill="black"/>
<path d="M60.1267 28.2524H57.0002V31.3842H60.1267V28.2524Z" fill="black"/>
<path d="M57.0001 28.2524H53.8736V31.3842H57.0001V28.2524Z" fill="black"/>
<path d="M53.8766 28.2524H50.7501V31.3842H53.8766V28.2524Z" fill="black"/>
<path d="M50.7501 28.2524H47.6236V31.3842H50.7501V28.2524Z" fill="black"/>
<path d="M47.6267 28.2524H44.5003V31.3842H47.6267V28.2524Z" fill="black"/>
<path d="M44.5003 28.2524H41.3738V31.3842H44.5003V28.2524Z" fill="black"/>
<path d="M41.3767 28.2524H38.2502V31.3842H41.3767V28.2524Z" fill="black"/>
<path d="M38.2502 28.2524H35.1237V31.3842H38.2502V28.2524Z" fill="black"/>
<path d="M35.1236 28.2524H31.9971V31.3842H35.1236V28.2524Z" fill="black"/>
<path d="M32 31.3812H28.8735V34.513H32V31.3812Z" fill="black"/>
<path d="M28.8735 34.5131H25.747V37.6449H28.8735V34.5131Z" fill="black"/>
<path d="M28.8735 37.642H25.747V40.7738H28.8735V37.642Z" fill="black"/>
<path d="M28.8735 40.7739H25.747V43.9057H28.8735V40.7739Z" fill="black"/>
<path d="M60.1267 50.1635H57.0002V53.2953H60.1267V50.1635Z" fill="black"/>
<path d="M57.0001 50.1635H53.8736V53.2953H57.0001V50.1635Z" fill="black"/>
<path d="M53.8766 50.1635H50.7501V53.2953H53.8766V50.1635Z" fill="black"/>
<path d="M50.7501 50.1635H47.6236V53.2953H50.7501V50.1635Z" fill="black"/>
<path d="M47.6267 50.1635H44.5003V53.2953H47.6267V50.1635Z" fill="black"/>
<path d="M44.5003 50.1635H41.3738V53.2953H44.5003V50.1635Z" fill="black"/>
<path d="M41.3767 50.1635H38.2502V53.2953H41.3767V50.1635Z" fill="black"/>
<path d="M38.2502 50.1635H35.1237V53.2953H38.2502V50.1635Z" fill="black"/>
<path d="M35.1236 50.1635H31.9971V53.2953H35.1236V50.1635Z" fill="black"/>
<path d="M32 47.0346H28.8735V50.1664H32V47.0346Z" fill="black"/>
<path d="M28.8735 43.9027H25.747V47.0345H28.8735V43.9027Z" fill="black"/>
<path d="M28.8735 40.7739H25.747V43.9057H28.8735V40.7739Z" fill="black"/>
<path d="M28.8735 37.642H25.747V40.7738H28.8735V37.642Z" fill="black"/>
<path d="M60.1267 47.0289H57.0002V50.1607H60.1267V47.0289Z" fill="#FA9600"/>
<path d="M63.2503 47.0289H60.1238V50.1607H63.2503V47.0289Z" fill="#FA9600"/>
<path d="M66.3768 47.0289H63.2503V50.1607H66.3768V47.0289Z" fill="#FA9600"/>
<path d="M69.5002 47.0289H66.3737V50.1607H69.5002V47.0289Z" fill="#FA9600"/>
<path d="M72.6267 47.0289H69.5002V50.1607H72.6267V47.0289Z" fill="#FA9600"/>
<path d="M75.751 47.0289H72.6245V50.1607H75.751V47.0289Z" fill="#FA9600"/>
<path d="M78.8767 47.0289H75.7502V50.1607H78.8767V47.0289Z" fill="#FA9600"/>
<path d="M82.0033 47.0289H78.8768V50.1607H82.0033V47.0289Z" fill="#FA9600"/>
<path d="M85.1275 47.0289H82.001V50.1607H85.1275V47.0289Z" fill="#FA9600"/>
<path d="M88.2533 47.0289H85.1268V50.1607H88.2533V47.0289Z" fill="#FA9600"/>
<path d="M91.3775 47.0289H88.251V50.1607H91.3775V47.0289Z" fill="#FA9600"/>
<path d="M94.5041 47.0289H91.3776V50.1607H94.5041V47.0289Z" fill="#FA9600"/>
<path d="M97.6273 47.0289H94.5008V50.1607H97.6273V47.0289Z" fill="#FA9600"/>
<path d="M100.754 47.0289H97.6273V50.1607H100.754V47.0289Z" fill="#FA9600"/>
<path d="M103.877 47.0289H100.751V50.1607H103.877V47.0289Z" fill="#FA9600"/>
<path d="M107.004 47.0289H103.878V50.1607H107.004V47.0289Z" fill="#FA9600"/>
<path d="M110.128 47.0289H107.001V50.1607H110.128V47.0289Z" fill="#FA9600"/>
<path d="M113.254 47.0289H110.128V50.1607H113.254V47.0289Z" fill="#FA9600"/>
<path d="M116.377 47.0289H113.251V50.1607H116.377V47.0289Z" fill="#FA9600"/>
<path d="M119.504 47.0289H116.378V50.1607H119.504V47.0289Z" fill="#FA9600"/>
<path d="M122.631 47.0289H119.504V50.1607H122.631V47.0289Z" fill="#FA9600"/>
<path d="M125.754 47.0289H122.628V50.1607H125.754V47.0289Z" fill="#FA9600"/>
<path d="M128.881 47.0289H125.754V50.1607H128.881V47.0289Z" fill="#FA9600"/>
<path d="M132.004 47.0289H128.878V50.1607H132.004V47.0289Z" fill="#FA9600"/>
<path d="M135.131 47.0289H132.004V50.1607H135.131V47.0289Z" fill="#FA9600"/>
<path d="M138.255 47.0289H135.128V50.1607H138.255V47.0289Z" fill="#FA9600"/>
<path d="M141.381 47.0289H138.255V50.1607H141.381V47.0289Z" fill="#FA9600"/>
<path d="M144.505 47.0289H141.378V50.1607H144.505V47.0289Z" fill="#FA9600"/>
<path d="M147.631 47.0289H144.505V50.1607H147.631V47.0289Z" fill="#FA9600"/>
<path d="M150.755 47.0289H147.628V50.1607H150.755V47.0289Z" fill="#FA9600"/>
<path d="M153.881 47.0289H150.755V50.1607H153.881V47.0289Z" fill="#FA9600"/>
<path d="M157.005 47.0289H153.878V50.1607H157.005V47.0289Z" fill="#FA9600"/>
<path d="M160.131 47.0289H157.005V50.1607H160.131V47.0289Z" fill="#FA9600"/>
<path d="M163.258 47.0289H160.131V50.1607H163.258V47.0289Z" fill="#FA9600"/>
<path d="M166.381 47.0289H163.255V50.1607H166.381V47.0289Z" fill="#FA9600"/>
<path d="M169.508 47.0289H166.381V50.1607H169.508V47.0289Z" fill="#FA9600"/>
<path d="M172.631 47.0289H169.505V50.1607H172.631V47.0289Z" fill="#FA9600"/>
<path d="M175.758 47.0289H172.632V50.1607H175.758V47.0289Z" fill="#FA9600"/>
<path d="M178.881 47.0289H175.755V50.1607H178.881V47.0289Z" fill="#FA9600"/>
<path d="M182.008 47.0289H178.881V50.1607H182.008V47.0289Z" fill="#FA9600"/>
<path d="M185.132 47.0289H182.006V50.1607H185.132V47.0289Z" fill="#FA9600"/>
<path d="M188.258 47.0289H185.131V50.1607H188.258V47.0289Z" fill="#FA9600"/>
<path d="M191.382 47.0289H188.256V50.1607H191.382V47.0289Z" fill="#FA9600"/>
<path d="M194.509 47.0289H191.382V50.1607H194.509V47.0289Z" fill="#FA9600"/>
<path d="M197.632 47.0289H194.506V50.1607H197.632V47.0289Z" fill="#FA9600"/>
<path d="M200.759 47.0289H197.632V50.1607H200.759V47.0289Z" fill="#FA9600"/>
<path d="M203.885 47.0289H200.759V50.1607H203.885V47.0289Z" fill="#FA9600"/>
<path d="M207.009 47.0289H203.882V50.1607H207.009V47.0289Z" fill="#FA9600"/>
<path d="M60.1267 47.0289H57.0002V50.1607H60.1267V47.0289Z" fill="#FA9600"/>
<path d="M57.0009 47.0289H53.8744V50.1607H57.0009V47.0289Z" fill="#FA9600"/>
<path d="M53.8767 47.0289H50.7502V50.1607H53.8767V47.0289Z" fill="#FA9600"/>
<path d="M50.7501 47.0289H47.6236V50.1607H50.7501V47.0289Z" fill="#FA9600"/>
<path d="M47.6269 47.0289H44.5004V50.1607H47.6269V47.0289Z" fill="#FA9600"/>
<path d="M44.5 47.0289H41.3735V50.1607H44.5V47.0289Z" fill="#FA9600"/>
<path d="M41.3766 47.0289H38.2502V50.1607H41.3766V47.0289Z" fill="#FA9600"/>
<path d="M38.2502 47.0289H35.1237V50.1607H38.2502V47.0289Z" fill="#FA9600"/>
<path d="M35.1237 47.0289H31.9972V50.1607H35.1237V47.0289Z" fill="#FA9600"/>
<path d="M32.0001 43.9001H28.8736V47.032H32.0001V43.9001Z" fill="#FA9600"/>
<path d="M60.1267 34.5129H57.0002V37.6447H60.1267V34.5129Z" fill="#FDD495"/>
<path d="M63.2503 34.5128H60.1238V37.6446H63.2503V34.5128Z" fill="#FDD495"/>
<path d="M66.3768 34.5128H63.2503V37.6446H66.3768V34.5128Z" fill="#FDD495"/>
<path d="M69.5002 34.5128H66.3737V37.6446H69.5002V34.5128Z" fill="#FDD495"/>
<path d="M72.6267 34.5128H69.5002V37.6446H72.6267V34.5128Z" fill="#FDD495"/>
<path d="M75.751 34.5128H72.6245V37.6446H75.751V34.5128Z" fill="#FDD495"/>
<path d="M78.8767 34.5128H75.7502V37.6446H78.8767V34.5128Z" fill="#FDD495"/>
<path d="M82.0033 34.5128H78.8768V37.6446H82.0033V34.5128Z" fill="#FDD495"/>
<path d="M85.1275 34.5128H82.001V37.6446H85.1275V34.5128Z" fill="#FDD495"/>
<path d="M88.2533 34.5128H85.1268V37.6446H88.2533V34.5128Z" fill="#FDD495"/>
<path d="M91.3775 34.5128H88.251V37.6446H91.3775V34.5128Z" fill="#FDD495"/>
<path d="M94.5041 34.5128H91.3776V37.6446H94.5041V34.5128Z" fill="#FDD495"/>
<path d="M97.6273 34.5128H94.5008V37.6446H97.6273V34.5128Z" fill="#FDD495"/>
<path d="M100.754 34.5128H97.6273V37.6446H100.754V34.5128Z" fill="#FDD495"/>
<path d="M103.877 34.5128H100.751V37.6446H103.877V34.5128Z" fill="#FDD495"/>
<path d="M107.004 34.5128H103.878V37.6446H107.004V34.5128Z" fill="#FDD495"/>
<path d="M110.128 34.5128H107.001V37.6446H110.128V34.5128Z" fill="#FDD495"/>
<path d="M113.254 34.5128H110.128V37.6446H113.254V34.5128Z" fill="#FDD495"/>
<path d="M116.377 34.5128H113.251V37.6446H116.377V34.5128Z" fill="#FDD495"/>
<path d="M119.504 34.5128H116.378V37.6446H119.504V34.5128Z" fill="#FDD495"/>
<path d="M122.631 34.5128H119.504V37.6446H122.631V34.5128Z" fill="#FDD495"/>
<path d="M125.754 34.5128H122.628V37.6446H125.754V34.5128Z" fill="#FDD495"/>
<path d="M128.881 34.5128H125.754V37.6446H128.881V34.5128Z" fill="#FDD495"/>
<path d="M132.004 34.5128H128.878V37.6446H132.004V34.5128Z" fill="#FDD495"/>
<path d="M135.131 34.5128H132.004V37.6446H135.131V34.5128Z" fill="#FDD495"/>
<path d="M138.255 34.5128H135.128V37.6446H138.255V34.5128Z" fill="#FDD495"/>
<path d="M141.381 34.5128H138.255V37.6446H141.381V34.5128Z" fill="#FDD495"/>
<path d="M144.505 34.5128H141.378V37.6446H144.505V34.5128Z" fill="#FDD495"/>
<path d="M147.631 34.5128H144.505V37.6446H147.631V34.5128Z" fill="#FDD495"/>
<path d="M150.755 34.5128H147.628V37.6446H150.755V34.5128Z" fill="#FDD495"/>
<path d="M153.881 34.5128H150.755V37.6446H153.881V34.5128Z" fill="#FDD495"/>
<path d="M157.005 34.5128H153.878V37.6446H157.005V34.5128Z" fill="#FDD495"/>
<path d="M160.131 34.5128H157.005V37.6446H160.131V34.5128Z" fill="#FDD495"/>
<path d="M163.258 34.5128H160.131V37.6446H163.258V34.5128Z" fill="#FDD495"/>
<path d="M166.381 34.5128H163.255V37.6446H166.381V34.5128Z" fill="#FDD495"/>
<path d="M169.508 34.5128H166.381V37.6446H169.508V34.5128Z" fill="#FDD495"/>
<path d="M172.631 34.5128H169.505V37.6446H172.631V34.5128Z" fill="#FDD495"/>
<path d="M175.758 34.5128H172.632V37.6446H175.758V34.5128Z" fill="#FDD495"/>
<path d="M178.881 34.5128H175.755V37.6446H178.881V34.5128Z" fill="#FDD495"/>
<path d="M182.008 34.5128H178.881V37.6446H182.008V34.5128Z" fill="#FDD495"/>
<path d="M185.132 34.5128H182.006V37.6446H185.132V34.5128Z" fill="#FDD495"/>
<path d="M188.258 34.5128H185.131V37.6446H188.258V34.5128Z" fill="#FDD495"/>
<path d="M191.382 34.5128H188.256V37.6446H191.382V34.5128Z" fill="#FDD495"/>
<path d="M194.509 34.5128H191.382V37.6446H194.509V34.5128Z" fill="#FDD495"/>
<path d="M197.632 34.5128H194.506V37.6446H197.632V34.5128Z" fill="#FDD495"/>
<path d="M200.759 34.5128H197.632V37.6446H200.759V34.5128Z" fill="#FDD495"/>
<path d="M203.885 34.5128H200.759V37.6446H203.885V34.5128Z" fill="#FDD495"/>
<path d="M207.009 34.5128H203.882V37.6446H207.009V34.5128Z" fill="#FDD495"/>
<path d="M60.1267 34.5129H57.0002V37.6447H60.1267V34.5129Z" fill="#FDD495"/>
<path d="M57.0009 34.5129H53.8744V37.6447H57.0009V34.5129Z" fill="#FDD495"/>
<path d="M53.8767 34.5129H50.7502V37.6447H53.8767V34.5129Z" fill="#FDD495"/>
<path d="M50.7501 34.5129H47.6236V37.6447H50.7501V34.5129Z" fill="#FDD495"/>
<path d="M47.6269 34.5129H44.5004V37.6447H47.6269V34.5129Z" fill="#FDD495"/>
<path d="M44.5 34.5129H41.3735V37.6447H44.5V34.5129Z" fill="#FDD495"/>
<path d="M41.3766 34.5129H38.2502V37.6447H41.3766V34.5129Z" fill="#FDD495"/>
<path d="M38.2502 34.5129H35.1237V37.6447H38.2502V34.5129Z" fill="#FDD495"/>
<path d="M35.1237 34.5129H31.9972V37.6447H35.1237V34.5129Z" fill="#FDD495"/>
<path d="M32.0001 37.6417H28.8736V40.7735H32.0001V37.6417Z" fill="#FDD495"/>
<path d="M30.4369 21.9138H27.3104V25.0456H30.4369V21.9138Z" fill="black"/>
<path d="M33.5634 21.9138H30.437V25.0456H33.5634V21.9138Z" fill="black"/>
<path d="M36.6877 21.9138H33.5612V25.0456H36.6877V21.9138Z" fill="black"/>
<path d="M39.8134 21.9138H36.6869V25.0456H39.8134V21.9138Z" fill="black"/>
<path d="M42.9376 21.9138H39.8111V25.0456H42.9376V21.9138Z" fill="black"/>
<path d="M46.0642 21.9138H42.9377V25.0456H46.0642V21.9138Z" fill="black"/>
<path d="M49.1875 21.9138H46.061V25.0456H49.1875V21.9138Z" fill="black"/>
<path d="M52.3142 21.9138H49.1877V25.0456H52.3142V21.9138Z" fill="black"/>
<path d="M55.4376 21.9138H52.3111V25.0456H55.4376V21.9138Z" fill="black"/>
<path d="M58.564 21.9138H55.4375V25.0456H58.564V21.9138Z" fill="black"/>
<path d="M61.6905 21.9138H58.564V25.0456H61.6905V21.9138Z" fill="black"/>
<path d="M64.8141 21.9138H61.6876V25.0456H64.8141V21.9138Z" fill="black"/>
<path d="M67.9407 21.9138H64.8142V25.0456H67.9407V21.9138Z" fill="black"/>
<path d="M71.0643 21.9138H67.9378V25.0456H71.0643V21.9138Z" fill="black"/>
<path d="M74.1908 21.9138H71.0643V25.0456H74.1908V21.9138Z" fill="black"/>
<path d="M77.3142 21.9138H74.1877V25.0456H77.3142V21.9138Z" fill="black"/>
<path d="M80.4409 21.9138H77.3144V25.0456H80.4409V21.9138Z" fill="black"/>
<path d="M83.5642 21.9138H80.4377V25.0456H83.5642V21.9138Z" fill="black"/>
<path d="M86.6907 21.9138H83.5642V25.0456H86.6907V21.9138Z" fill="black"/>
<path d="M89.815 21.9138H86.6885V25.0456H89.815V21.9138Z" fill="black"/>
<path d="M92.9407 21.9138H89.8142V25.0456H92.9407V21.9138Z" fill="black"/>
<path d="M96.0649 21.9138H92.9384V25.0456H96.0649V21.9138Z" fill="black"/>
<path d="M99.1915 21.9138H96.065V25.0456H99.1915V21.9138Z" fill="black"/>
<path d="M102.318 21.9138H99.1916V25.0456H102.318V21.9138Z" fill="black"/>
<path d="M105.441 21.9138H102.315V25.0456H105.441V21.9138Z" fill="black"/>
<path d="M108.568 21.9138H105.442V25.0456H108.568V21.9138Z" fill="black"/>
<path d="M111.691 21.9138H108.565V25.0456H111.691V21.9138Z" fill="black"/>
<path d="M114.818 21.9138H111.691V25.0456H114.818V21.9138Z" fill="black"/>
<path d="M117.942 21.9138H114.815V25.0456H117.942V21.9138Z" fill="black"/>
<path d="M121.068 21.9138H117.942V25.0456H121.068V21.9138Z" fill="black"/>
<path d="M124.192 21.9138H121.065V25.0456H124.192V21.9138Z" fill="black"/>
<path d="M127.318 21.9138H124.192V25.0456H127.318V21.9138Z" fill="black"/>
<path d="M130.441 21.9138H127.315V25.0456H130.441V21.9138Z" fill="black"/>
<path d="M133.568 21.9138H130.442V25.0456H133.568V21.9138Z" fill="black"/>
<path d="M136.691 21.9138H133.565V25.0456H136.691V21.9138Z" fill="black"/>
<path d="M139.818 21.9138H136.692V25.0456H139.818V21.9138Z" fill="black"/>
<path d="M142.945 21.9138H139.818V25.0456H142.945V21.9138Z" fill="black"/>
<path d="M146.069 21.9138H142.942V25.0456H146.069V21.9138Z" fill="black"/>
<path d="M149.195 21.9138H146.068V25.0456H149.195V21.9138Z" fill="black"/>
<path d="M152.319 21.9138H149.192V25.0456H152.319V21.9138Z" fill="black"/>
<path d="M155.445 21.9138H152.319V25.0456H155.445V21.9138Z" fill="black"/>
<path d="M158.569 21.9138H155.442V25.0456H158.569V21.9138Z" fill="black"/>
<path d="M161.695 21.9138H158.569V25.0456H161.695V21.9138Z" fill="black"/>
<path d="M164.819 21.9138H161.692V25.0456H164.819V21.9138Z" fill="black"/>
<path d="M167.945 21.9138H164.819V25.0456H167.945V21.9138Z" fill="black"/>
<path d="M171.069 21.9138H167.942V25.0456H171.069V21.9138Z" fill="black"/>
<path d="M174.195 21.9138H171.069V25.0456H174.195V21.9138Z" fill="black"/>
<path d="M177.319 21.9138H174.192V25.0456H177.319V21.9138Z" fill="black"/>
<path d="M180.446 21.9138H177.319V25.0456H180.446V21.9138Z" fill="black"/>
<path d="M183.572 21.9138H180.446V25.0456H183.572V21.9138Z" fill="black"/>
<path d="M186.695 21.9138H183.569V25.0456H186.695V21.9138Z" fill="black"/>
<path d="M189.822 21.9138H186.696V25.0456H189.822V21.9138Z" fill="black"/>
<path d="M192.945 21.9138H189.819V25.0456H192.945V21.9138Z" fill="black"/>
<path d="M196.072 21.9138H192.946V25.0456H196.072V21.9138Z" fill="black"/>
<path d="M199.196 21.9138H196.07V25.0456H199.196V21.9138Z" fill="black"/>
<path d="M202.323 21.9138H199.196V25.0456H202.323V21.9138Z" fill="black"/>
<path d="M205.446 21.9138H202.32V25.0456H205.446V21.9138Z" fill="black"/>
<path d="M208.573 21.9138H205.446V25.0456H208.573V21.9138Z" fill="black"/>
<path d="M211.696 21.9138H208.57V25.0456H211.696V21.9138Z" fill="black"/>
<path d="M214.823 21.9138H211.696V25.0456H214.823V21.9138Z" fill="black"/>
<path d="M217.946 21.9138H214.82V25.0456H217.946V21.9138Z" fill="black"/>
<path d="M221.073 21.9138H217.946V25.0456H221.073V21.9138Z" fill="black"/>
<path d="M224.199 21.9138H221.073V25.0456H224.199V21.9138Z" fill="black"/>
<path d="M227.323 21.9138H224.196V25.0456H227.323V21.9138Z" fill="black"/>
<path d="M230.449 21.9138H227.323V25.0456H230.449V21.9138Z" fill="black"/>
<path d="M233.573 21.9138H230.446V25.0456H233.573V21.9138Z" fill="black"/>
<path d="M236.699 21.9138H233.573V25.0456H236.699V21.9138Z" fill="black"/>
<path d="M239.823 21.9138H236.696V25.0456H239.823V21.9138Z" fill="black"/>
<path d="M242.949 21.9138H239.823V25.0456H242.949V21.9138Z" fill="black"/>
<path d="M246.073 21.9138H242.947V25.0456H246.073V21.9138Z" fill="black"/>
<path d="M249.199 21.9138H246.073V25.0456H249.199V21.9138Z" fill="black"/>
<path d="M252.324 21.9138H249.197V25.0456H252.324V21.9138Z" fill="black"/>
<path d="M255.45 21.9138H252.324V25.0456H255.45V21.9138Z" fill="black"/>
<path d="M258.573 21.9138H255.447V25.0456H258.573V21.9138Z" fill="black"/>
<path d="M261.7 21.9138H258.574V25.0456H261.7V21.9138Z" fill="black"/>
<path d="M264.827 21.9138H261.7V25.0456H264.827V21.9138Z" fill="black"/>
<path d="M27.3135 25.0427H24.187V28.1745H27.3135V25.0427Z" fill="black"/>
<path d="M267.95 25.0427H264.823V28.1745H267.95V25.0427Z" fill="black"/>
<path d="M24.187 28.1746H21.0605V31.3064H24.187V28.1746Z" fill="black"/>
<path d="M271.076 28.1746H267.95V31.3064H271.076V28.1746Z" fill="black"/>
<path d="M21.0634 31.3034H17.9369V34.4352H21.0634V31.3034Z" fill="black"/>
<path d="M274.2 31.3034H271.074V34.4352H274.2V31.3034Z" fill="black"/>
<path d="M21.0634 34.4353H17.9369V37.5671H21.0634V34.4353Z" fill="black"/>
<path d="M274.2 34.4353H271.074V37.5671H274.2V34.4353Z" fill="black"/>
<path d="M21.0634 37.5641H17.9369V40.696H21.0634V37.5641Z" fill="black"/>
<path d="M274.2 37.5641H271.074V40.696H274.2V37.5641Z" fill="black"/>
<path d="M30.4369 56.3492H27.3104V59.481H30.4369V56.3492Z" fill="black"/>
<path d="M33.5635 56.3492H30.437V59.481H33.5635V56.3492Z" fill="black"/>
<path d="M36.6877 56.3492H33.5612V59.481H36.6877V56.3492Z" fill="black"/>
<path d="M39.8135 56.3492H36.687V59.481H39.8135V56.3492Z" fill="black"/>
<path d="M42.9377 56.3492H39.8112V59.481H42.9377V56.3492Z" fill="black"/>
<path d="M46.0643 56.3492H42.9378V59.481H46.0643V56.3492Z" fill="black"/>
<path d="M49.1875 56.3494H46.0611V59.4812H49.1875V56.3494Z" fill="black"/>
<path d="M52.3142 56.3492H49.1878V59.481H52.3142V56.3492Z" fill="black"/>
<path d="M55.4376 56.3494H52.3111V59.4812H55.4376V56.3494Z" fill="black"/>
<path d="M58.5641 56.3494H55.4376V59.4812H58.5641V56.3494Z" fill="black"/>
<path d="M61.6906 56.3494H58.5641V59.4812H61.6906V56.3494Z" fill="black"/>
<path d="M64.8142 56.3494H61.6877V59.4812H64.8142V56.3494Z" fill="black"/>
<path d="M67.9408 56.3494H64.8143V59.4812H67.9408V56.3494Z" fill="black"/>
<path d="M71.0644 56.3494H67.9379V59.4812H71.0644V56.3494Z" fill="black"/>
<path d="M74.1909 56.3494H71.0644V59.4812H74.1909V56.3494Z" fill="black"/>
<path d="M77.3142 56.3492H74.1878V59.481H77.3142V56.3492Z" fill="black"/>
<path d="M80.4409 56.3494H77.3145V59.4812H80.4409V56.3494Z" fill="black"/>
<path d="M83.5642 56.3492H80.4377V59.481H83.5642V56.3492Z" fill="black"/>
<path d="M86.6908 56.3492H83.5643V59.481H86.6908V56.3492Z" fill="black"/>
<path d="M89.815 56.3492H86.6885V59.481H89.815V56.3492Z" fill="black"/>
<path d="M92.9408 56.3492H89.8143V59.481H92.9408V56.3492Z" fill="black"/>
<path d="M96.065 56.3492H92.9385V59.481H96.065V56.3492Z" fill="black"/>
<path d="M99.1916 56.3492H96.0651V59.481H99.1916V56.3492Z" fill="black"/>
<path d="M102.318 56.3492H99.1917V59.481H102.318V56.3492Z" fill="black"/>
<path d="M105.441 56.3494H102.315V59.4812H105.441V56.3494Z" fill="black"/>
<path d="M108.568 56.3492H105.442V59.481H108.568V56.3492Z" fill="black"/>
<path d="M111.692 56.3494H108.565V59.4812H111.692V56.3494Z" fill="black"/>
<path d="M114.818 56.3494H111.691V59.4812H114.818V56.3494Z" fill="black"/>
<path d="M117.942 56.3494H114.815V59.4812H117.942V56.3494Z" fill="black"/>
<path d="M121.068 56.3494H117.942V59.4812H121.068V56.3494Z" fill="black"/>
<path d="M124.192 56.3494H121.065V59.4812H124.192V56.3494Z" fill="black"/>
<path d="M127.318 56.3494H124.192V59.4812H127.318V56.3494Z" fill="black"/>
<path d="M130.442 56.3492H127.315V59.481H130.442V56.3492Z" fill="black"/>
<path d="M133.568 56.3492H130.442V59.481H133.568V56.3492Z" fill="black"/>
<path d="M136.692 56.3492H133.565V59.481H136.692V56.3492Z" fill="black"/>
<path d="M139.818 56.3492H136.692V59.481H139.818V56.3492Z" fill="black"/>
<path d="M142.945 56.3492H139.818V59.481H142.945V56.3492Z" fill="black"/>
<path d="M146.069 56.3492H142.942V59.481H146.069V56.3492Z" fill="black"/>
<path d="M149.195 56.3492H146.068V59.481H149.195V56.3492Z" fill="black"/>
<path d="M152.319 56.3492H149.192V59.481H152.319V56.3492Z" fill="black"/>
<path d="M155.445 56.3492H152.319V59.481H155.445V56.3492Z" fill="black"/>
<path d="M158.569 56.3494H155.442V59.4812H158.569V56.3494Z" fill="black"/>
<path d="M161.695 56.3492H158.569V59.481H161.695V56.3492Z" fill="black"/>
<path d="M164.819 56.3494H161.692V59.4812H164.819V56.3494Z" fill="black"/>
<path d="M167.945 56.3494H164.819V59.4812H167.945V56.3494Z" fill="black"/>
<path d="M171.069 56.3494H167.943V59.4812H171.069V56.3494Z" fill="black"/>
<path d="M174.195 56.3494H171.069V59.4812H174.195V56.3494Z" fill="black"/>
<path d="M177.319 56.3492H174.192V59.481H177.319V56.3492Z" fill="black"/>
<path d="M180.446 56.3494H177.319V59.4812H180.446V56.3494Z" fill="black"/>
<path d="M183.572 56.3494H180.446V59.4812H183.572V56.3494Z" fill="black"/>
<path d="M186.695 56.3492H183.569V59.481H186.695V56.3492Z" fill="black"/>
<path d="M189.822 56.3494H186.696V59.4812H189.822V56.3494Z" fill="black"/>
<path d="M192.945 56.3492H189.819V59.481H192.945V56.3492Z" fill="black"/>
<path d="M196.072 56.3492H192.946V59.481H196.072V56.3492Z" fill="black"/>
<path d="M199.196 56.3492H196.07V59.481H199.196V56.3492Z" fill="black"/>
<path d="M202.323 56.3492H199.196V59.481H202.323V56.3492Z" fill="black"/>
<path d="M205.446 56.3492H202.32V59.481H205.446V56.3492Z" fill="black"/>
<path d="M208.573 56.3492H205.446V59.481H208.573V56.3492Z" fill="black"/>
<path d="M211.696 56.3494H208.57V59.4812H211.696V56.3494Z" fill="black"/>
<path d="M214.823 56.3494H211.696V59.4812H214.823V56.3494Z" fill="black"/>
<path d="M217.946 56.3494H214.82V59.4812H217.946V56.3494Z" fill="black"/>
<path d="M221.073 56.3494H217.946V59.4812H221.073V56.3494Z" fill="black"/>
<path d="M224.199 56.3494H221.073V59.4812H224.199V56.3494Z" fill="black"/>
<path d="M227.323 56.3494H224.196V59.4812H227.323V56.3494Z" fill="black"/>
<path d="M230.449 56.3494H227.323V59.4812H230.449V56.3494Z" fill="black"/>
<path d="M233.573 56.3492H230.446V59.481H233.573V56.3492Z" fill="black"/>
<path d="M236.7 56.3494H233.573V59.4812H236.7V56.3494Z" fill="black"/>
<path d="M239.823 56.3492H236.696V59.481H239.823V56.3492Z" fill="black"/>
<path d="M242.949 56.3492H239.823V59.481H242.949V56.3492Z" fill="black"/>
<path d="M246.074 56.3492H242.947V59.481H246.074V56.3492Z" fill="black"/>
<path d="M249.199 56.3492H246.073V59.481H249.199V56.3492Z" fill="black"/>
<path d="M252.324 56.3492H249.197V59.481H252.324V56.3492Z" fill="black"/>
<path d="M255.45 56.3492H252.324V59.481H255.45V56.3492Z" fill="black"/>
<path d="M258.573 56.3494H255.447V59.4812H258.573V56.3494Z" fill="black"/>
<path d="M261.7 56.3492H258.574V59.481H261.7V56.3492Z" fill="black"/>
<path d="M264.827 56.3492H261.7V59.481H264.827V56.3492Z" fill="black"/>
<path d="M27.3135 53.2175H24.187V56.3493H27.3135V53.2175Z" fill="black"/>
<path d="M267.95 53.2175H264.824V56.3493H267.95V53.2175Z" fill="black"/>
<path d="M24.1871 50.0887H21.0606V53.2205H24.1871V50.0887Z" fill="black"/>
<path d="M271.077 50.0887H267.95V53.2205H271.077V50.0887Z" fill="black"/>
<path d="M21.0634 46.9567H17.937V50.0885H21.0634V46.9567Z" fill="black"/>
<path d="M274.2 46.9567H271.074V50.0885H274.2V46.9567Z" fill="black"/>
<path d="M21.0634 43.8279H17.937V46.9598H21.0634V43.8279Z" fill="black"/>
<path d="M274.2 43.8279H271.074V46.9598H274.2V43.8279Z" fill="black"/>
<path d="M21.0634 40.696H17.9369V43.8279H21.0634V40.696Z" fill="black"/>
<path d="M274.2 40.696H271.074V43.8278H274.2V40.696Z" fill="black"/>
<path d="M44.636 25.0428V15.6531H41.4894V9.39234H38.3456V3.13159H35.199V9.39234H32.0552V15.6531H28.9086V25.0428H3.74691V28.1746H6.89067V31.3035H10.0373V34.4353H13.1811V37.5642H16.3277V40.6961H19.4715V50.0886H16.3277V62.6101H13.1811V68.8708H19.4715V65.739H22.6182V62.6101H28.9086V59.4783H35.199V56.3494H38.3456V59.4783H44.636V62.6101H50.9265V65.739H54.0702V68.8708H60.3606V62.6101H57.2169V50.0886H54.0702V40.6961H57.2169V37.5642H60.3606V34.4353H63.5073V31.3035H66.6539V28.1746H69.7977V25.0428H44.636Z" fill="#FBB03B"/>
<path d="M35.2013 3.13171H32.0547V6.26353H35.2013V3.13171Z" fill="black"/>
<path d="M35.2013 6.26056H32.0547V9.39237H35.2013V6.26056Z" fill="black"/>
<path d="M32.0552 9.39258H28.9086V12.5244H32.0552V9.39258Z" fill="black"/>
<path d="M32.0552 12.5215H28.9086V15.6534H32.0552V12.5215Z" fill="black"/>
<path d="M28.9083 15.6531H25.7616V18.7849H28.9083V15.6531Z" fill="black"/>
<path d="M28.9083 18.7822H25.7616V21.914H28.9083V18.7822Z" fill="black"/>
<path d="M28.9083 21.9138H25.7616V25.0456H28.9083V21.9138Z" fill="black"/>
<path d="M25.7645 21.9138H22.6179V25.0456H25.7645V21.9138Z" fill="black"/>
<path d="M22.6178 21.9138H19.4712V25.0456H22.6178V21.9138Z" fill="black"/>
<path d="M19.4741 21.9138H16.3274V25.0456H19.4741V21.9138Z" fill="black"/>
<path d="M16.327 21.9141H13.1804V25.0459H16.327V21.9141Z" fill="black"/>
<path d="M13.1833 21.9141H10.0366V25.0459H13.1833V21.9141Z" fill="black"/>
<path d="M10.0372 21.9141H6.89052V25.0459H10.0372V21.9141Z" fill="black"/>
<path d="M6.89342 21.9141H3.74677V25.0459H6.89342V21.9141Z" fill="black"/>
<path d="M3.7466 21.9138H0.599953V25.0456H3.7466V21.9138Z" fill="black"/>
<path d="M3.7466 25.0429H0.599953V28.1747H3.7466V25.0429Z" fill="black"/>
<path d="M6.89342 28.1746H3.74677V31.3064H6.89342V28.1746Z" fill="black"/>
<path d="M10.0372 31.3036H6.89052V34.4355H10.0372V31.3036Z" fill="black"/>
<path d="M13.1833 34.4355H10.0366V37.5674H13.1833V34.4355Z" fill="black"/>
<path d="M16.327 37.5646H13.1804V40.6965H16.327V37.5646Z" fill="black"/>
<path d="M19.4741 40.696H16.3274V43.8279H19.4741V40.696Z" fill="black"/>
<path d="M19.4741 43.828H16.3274V46.9598H19.4741V43.828Z" fill="black"/>
<path d="M19.4741 46.9568H16.3274V50.0886H19.4741V46.9568Z" fill="black"/>
<path d="M16.327 50.0887H13.1804V53.2206H16.327V50.0887Z" fill="black"/>
<path d="M16.327 53.2175H13.1804V56.3493H16.327V53.2175Z" fill="black"/>
<path d="M38.3451 56.3492H35.1984V59.4811H38.3451V56.3492Z" fill="black"/>
<path d="M16.327 56.3492H13.1804V59.4811H16.327V56.3492Z" fill="black"/>
<path d="M35.2013 59.4785H32.0547V62.6103H35.2013V59.4785Z" fill="black"/>
<path d="M32.0552 59.4785H28.9086V62.6103H32.0552V59.4785Z" fill="black"/>
<path d="M16.327 59.4785H13.1804V62.6103H16.327V59.4785Z" fill="black"/>
<path d="M28.9083 62.6102H25.7616V65.742H28.9083V62.6102Z" fill="black"/>
<path d="M25.7645 62.6102H22.6179V65.742H25.7645V62.6102Z" fill="black"/>
<path d="M13.1833 62.6102H10.0366V65.742H13.1833V62.6102Z" fill="black"/>
<path d="M22.6178 65.739H19.4712V68.8708H22.6178V65.739Z" fill="black"/>
<path d="M13.1833 65.739H10.0366V68.8708H13.1833V65.739Z" fill="black"/>
<path d="M19.474 68.8712H16.3273V72.003H19.474V68.8712Z" fill="black"/>
<path d="M16.327 68.8712H13.1804V72.003H16.327V68.8712Z" fill="black"/>
<path d="M13.1833 68.8712H10.0366V72.003H13.1833V68.8712Z" fill="black"/>
<path d="M38.345 12.5213H35.1984V15.6531H38.345V12.5213Z" fill="white"/>
<path d="M38.345 9.39246H35.1984V12.5243H38.345V9.39246Z" fill="white"/>
<path d="M35.2013 15.6531H32.0546V18.7849H35.2013V15.6531Z" fill="white"/>
<path d="M35.2013 18.7822H32.0546V21.914H35.2013V18.7822Z" fill="white"/>
<path d="M32.0546 21.9138H28.9079V25.0456H32.0546V21.9138Z" fill="white"/>
<path d="M32.0546 25.0429H28.9079V28.1747H32.0546V25.0429Z" fill="white"/>
<path d="M32.0546 28.1746H28.9079V31.3064H32.0546V28.1746Z" fill="white"/>
<path d="M28.9075 28.1748H25.7609V31.3066H28.9075V28.1748Z" fill="white"/>
<path d="M25.7638 28.1748H22.6171V31.3066H25.7638V28.1748Z" fill="white"/>
<path d="M22.6178 28.1748H19.4711V31.3066H22.6178V28.1748Z" fill="white"/>
<path d="M19.474 28.1748H16.3274V31.3066H19.474V28.1748Z" fill="white"/>
<path d="M16.3271 28.1746H13.1805V31.3064H16.3271V28.1746Z" fill="white"/>
<path d="M41.492 3.13159H38.3453V6.26341H41.492V3.13159Z" fill="black"/>
<path d="M38.3451 -0.00012207H35.1984V3.13169H38.3451V-0.00012207Z" fill="black"/>
<path d="M41.492 6.26086H38.3453V9.39268H41.492V6.26086Z" fill="black"/>
<path d="M44.6357 9.39252H41.489V12.5243H44.6357V9.39252Z" fill="black"/>
<path d="M44.6357 12.5214H41.489V15.6532H44.6357V12.5214Z" fill="black"/>
<path d="M47.7818 15.6531H44.6352V18.785H47.7818V15.6531Z" fill="black"/>
<path d="M47.7818 18.7825H44.6352V21.9143H47.7818V18.7825Z" fill="black"/>
<path d="M47.7818 21.9139H44.6352V25.0457H47.7818V21.9139Z" fill="black"/>
<path d="M50.9255 21.9139H47.7789V25.0457H50.9255V21.9139Z" fill="black"/>
<path d="M54.0726 21.9139H50.926V25.0457H54.0726V21.9139Z" fill="black"/>
<path d="M57.2164 21.9139H54.0697V25.0457H57.2164V21.9139Z" fill="black"/>
<path d="M60.363 21.9139H57.2164V25.0457H60.363V21.9139Z" fill="black"/>
<path d="M63.5068 21.9139H60.3601V25.0457H63.5068V21.9139Z" fill="black"/>
<path d="M66.6537 21.9139H63.5071V25.0457H66.6537V21.9139Z" fill="black"/>
<path d="M69.7998 21.9139H66.6532V25.0457H69.7998V21.9139Z" fill="black"/>
<path d="M72.9436 21.9139H69.7969V25.0457H72.9436V21.9139Z" fill="black"/>
<path d="M72.9436 25.043H69.7969V28.1748H72.9436V25.043Z" fill="black"/>
<path d="M69.7998 28.1746H66.6532V31.3064H69.7998V28.1746Z" fill="black"/>
<path d="M66.6537 31.304H63.5071V34.4358H66.6537V31.304Z" fill="black"/>
<path d="M63.5068 34.4354H60.3601V37.5672H63.5068V34.4354Z" fill="black"/>
<path d="M60.363 37.5645H57.2164V40.6963H60.363V37.5645Z" fill="black"/>
<path d="M57.2164 40.6961H54.0697V43.8279H57.2164V40.6961Z" fill="black"/>
<path d="M57.2164 43.8281H54.0697V46.9599H57.2164V43.8281Z" fill="black"/>
<path d="M57.2164 46.9568H54.0697V50.0887H57.2164V46.9568Z" fill="black"/>
<path d="M60.363 50.0888H57.2164V53.2206H60.363V50.0888Z" fill="black"/>
<path d="M60.363 53.2176H57.2164V56.3494H60.363V53.2176Z" fill="black"/>
<path d="M38.3451 56.3495H35.1985V59.4813H38.3451V56.3495Z" fill="black"/>
<path d="M60.363 56.3495H57.2164V59.4813H60.363V56.3495Z" fill="black"/>
<path d="M41.492 59.4783H38.3453V62.6101H41.492V59.4783Z" fill="black"/>
<path d="M44.6357 59.4783H41.489V62.6101H44.6357V59.4783Z" fill="black"/>
<path d="M60.363 59.4783H57.2164V62.6101H60.363V59.4783Z" fill="black"/>
<path d="M47.7818 62.61H44.6352V65.7419H47.7818V62.61Z" fill="black"/>
<path d="M50.9255 62.61H47.7789V65.7419H50.9255V62.61Z" fill="black"/>
<path d="M63.5068 62.6102H60.3601V65.742H63.5068V62.6102Z" fill="black"/>
<path d="M54.0725 65.7391H50.9258V68.8709H54.0725V65.7391Z" fill="black"/>
<path d="M63.5068 65.7391H60.3601V68.8709H63.5068V65.7391Z" fill="black"/>
<path d="M57.2164 68.871H54.0697V72.0028H57.2164V68.871Z" fill="black"/>
<path d="M60.363 68.871H57.2164V72.0028H60.363V68.871Z" fill="black"/>
<path d="M63.5068 68.871H60.3601V72.0028H63.5068V68.871Z" fill="black"/>
<path d="M6.89355 25.043H3.74691V28.1748H6.89355V25.043Z" fill="#FA9600"/>
<path d="M10.0373 28.1749H6.89061V31.3067H10.0373V28.1749Z" fill="#FA9600"/>
<path d="M13.1842 31.304H10.0375V34.4358H13.1842V31.304Z" fill="#FA9600"/>
<path d="M16.3277 34.4356H13.1811V37.5674H16.3277V34.4356Z" fill="#FA9600"/>
<path d="M19.474 37.5673H16.3274V40.6991H19.474V37.5673Z" fill="#FA9600"/>
<path d="M38.3459 53.2176H35.1992V56.3494H38.3459V53.2176Z" fill="#FA9600"/>
<path d="M35.2021 56.3495H32.0555V59.4813H35.2021V56.3495Z" fill="#FA9600"/>
<path d="M32.0552 56.3495H28.9085V59.4813H32.0552V56.3495Z" fill="#FA9600"/>
<path d="M28.9086 59.4786H25.7619V62.6104H28.9086V59.4786Z" fill="#FA9600"/>
<path d="M25.7647 59.4786H22.6181V62.6104H25.7647V59.4786Z" fill="#FA9600"/>
<path d="M22.6178 62.6102H19.4711V65.742H22.6178V62.6102Z" fill="#FA9600"/>
<path d="M19.474 65.7391H16.3274V68.8709H19.474V65.7391Z" fill="#FA9600"/>
<path d="M16.3277 65.7393H13.1811V68.8711H16.3277V65.7393Z" fill="#FA9600"/>
<path d="M69.8006 25.043H66.6539V28.1748H69.8006V25.043Z" fill="#FA9600"/>
<path d="M66.6545 28.1746H63.5078V31.3064H66.6545V28.1746Z" fill="#FA9600"/>
<path d="M63.5075 31.3037H60.3609V34.4355H63.5075V31.3037Z" fill="#FA9600"/>
<path d="M60.3638 34.4356H57.2172V37.5674H60.3638V34.4356Z" fill="#FA9600"/>
<path d="M57.2171 37.5673H54.0704V40.6991H57.2171V37.5673Z" fill="#FA9600"/>
<path d="M38.3459 53.2178H35.1992V56.3496H38.3459V53.2178Z" fill="#FA9600"/>
<path d="M41.4927 56.3495H38.3461V59.4813H41.4927V56.3495Z" fill="#FA9600"/>
<path d="M44.6364 56.3495H41.4898V59.4813H44.6364V56.3495Z" fill="#FA9600"/>
<path d="M47.7826 59.4786H44.6359V62.6104H47.7826V59.4786Z" fill="#FA9600"/>
<path d="M50.9263 59.4786H47.7796V62.6104H50.9263V59.4786Z" fill="#FA9600"/>
<path d="M54.0734 62.6102H50.9267V65.742H54.0734V62.6102Z" fill="#FA9600"/>
<path d="M57.2171 65.7393H54.0704V68.8711H57.2171V65.7393Z" fill="#FA9600"/>
<path d="M60.3638 65.7393H57.2172V68.8711H60.3638V65.7393Z" fill="#FA9600"/>
<path d="M19.4745 37.5645H16.3278V40.6963H19.4745V37.5645Z" fill="#FA9600"/>
<path d="M35.2018 53.2178H32.0552V56.3496H35.2018V53.2178Z" fill="#FA9600"/>
<path d="M32.0551 53.2178H28.9085V56.3496H32.0551V53.2178Z" fill="#FA9600"/>
<path d="M28.9081 56.3495H25.7614V59.4813H28.9081V56.3495Z" fill="#FA9600"/>
<path d="M25.7643 56.3495H22.6177V59.4813H25.7643V56.3495Z" fill="#FA9600"/>
<path d="M22.6183 59.4786H19.4717V62.6104H22.6183V59.4786Z" fill="#FA9600"/>
<path d="M19.4745 62.6102H16.3278V65.742H19.4745V62.6102Z" fill="#FA9600"/>
<path d="M16.3276 62.6102H13.181V65.742H16.3276V62.6102Z" fill="#FA9600"/>
<path d="M57.2168 37.5645H54.0701V40.6963H57.2168V37.5645Z" fill="#FA9600"/>
<path d="M41.4925 53.2178H38.3459V56.3496H41.4925V53.2178Z" fill="#FA9600"/>
<path d="M44.6363 53.2178H41.4896V56.3496H44.6363V53.2178Z" fill="#FA9600"/>
<path d="M47.7832 56.3495H44.6365V59.4813H47.7832V56.3495Z" fill="#FA9600"/>
<path d="M50.9267 56.3495H47.78V59.4813H50.9267V56.3495Z" fill="#FA9600"/>
<path d="M54.0729 59.4786H50.9263V62.6104H54.0729V59.4786Z" fill="#FA9600"/>
<path d="M57.2168 62.6102H54.0701V65.742H57.2168V62.6102Z" fill="#FA9600"/>
<path d="M60.3637 62.6102H57.2171V65.742H60.3637V62.6102Z" fill="#FA9600"/>
</g>
<defs>
<clipPath id="clip0_65_127">
<rect width="273.6" height="72" fill="white" transform="translate(0.599976 -0.00012207)"/>
</clipPath>
</defs>
</svg>
