<svg width="36" height="36" viewBox="0 0 36 36" fill="none" color="text" xmlns="http://www.w3.org/2000/svg" class="sc-bdfBQB hslhta"><g clip-path="url(#clip0_3490_704)"><path d="M35.9998 18C35.9998 27.941 27.9409 36 17.9998 36C17.3287 36.0002 16.6581 35.9632 15.991 35.8891C15.4582 35.8301 14.9324 35.747 14.4135 35.64C11.2524 34.9954 8.32222 33.5142 5.92865 31.3512C3.53507 29.1881 1.76583 26.4223 0.805499 23.3424C0.695579 22.9872 0.596219 22.627 0.507419 22.2617C0.189338 20.9476 0.0202725 19.6018 0.00341917 18.2498C0.00341917 18.167 0.00341917 18.0835 0.00341917 18C-0.000180826 8.05896 8.05878 0 17.9998 0H18.2497C19.6016 0.0168533 20.9474 0.185919 22.2615 0.504C22.6273 0.59232 22.9885 0.69216 23.3451 0.80352C26.425 1.76378 29.1909 3.533 31.3539 5.92659C33.517 8.32017 34.9981 11.2504 35.6427 14.4115C35.7473 14.9299 35.8294 15.4555 35.8889 15.9883C35.9631 16.6563 36.0001 17.3279 35.9998 18Z" fill="url(#paint0_linear_3490_704)"></path><path opacity="0.15" d="M22.2615 0.5076L0.507418 22.2617C0.189337 20.9476 0.0202713 19.6018 0.00341797 18.2498L18.2497 0C19.6018 0.0180325 20.9475 0.188306 22.2615 0.5076Z" fill="white"></path><path opacity="0.15" d="M35.889 15.9905L15.9911 35.8891C15.4583 35.8301 14.9325 35.7471 14.4136 35.64L35.6399 14.4137C35.7465 14.9326 35.8295 15.4582 35.889 15.9905Z" fill="white"></path><path opacity="0.15" d="M30.6094 5.15381L5.15377 30.6094C3.14789 28.5681 1.65779 26.0779 0.807129 23.3453L23.3431 0.809326C26.0762 1.65905 28.5672 3.14842 30.6094 5.15381Z" fill="white"></path><path d="M17.9999 33.5267C26.5752 33.5267 33.5267 26.5752 33.5267 17.9999C33.5267 9.42473 26.5752 2.47314 17.9999 2.47314C9.42473 2.47314 2.47314 9.42473 2.47314 17.9999C2.47314 26.5752 9.42473 33.5267 17.9999 33.5267Z" fill="#1A4891"></path><path d="M17.9998 32.9832C26.2748 32.9832 32.983 26.275 32.983 18C32.983 9.72505 26.2748 3.01685 17.9998 3.01685C9.72481 3.01685 3.0166 9.72505 3.0166 18C3.0166 26.275 9.72481 32.9832 17.9998 32.9832Z" fill="url(#paint1_linear_3490_704)"></path><g mix-blend-mode="multiply"><path d="M17.7212 14.7967L14.9082 15.2517L7.20417 16.4959L6.74121 16.5679L4.40625 16.9473L6.95433 19.4961L10.5039 18.9331L12.0159 18.689L13.8066 18.401L14.4294 18.3009L13.7454 22.6209L18.0654 21.9376L17.4311 25.8609L16.8457 29.3889L19.4161 31.9593L19.7545 29.8634L20.9843 22.2494L21.1117 21.4574L21.1369 21.2954L21.5689 18.6436L22.3083 14.063L17.7212 14.7967ZM29.0158 17.1943L26.6643 17.5989L23.9859 18.0309L22.875 18.2102L22.4034 21.2572L28.7955 20.2248L29.2203 20.1528L31.5963 19.7704L29.0158 17.1943ZM16.5872 4.76636L16.251 6.85436L15.1199 13.8736L18.1698 13.3804L18.3318 12.3724L18.7638 9.70412L18.8264 9.38588L19.1634 7.33532L16.5872 4.76636Z" fill="#3F62BA"></path></g><path d="M17.7212 14.4367L14.9082 14.8917L7.20417 16.1359L6.74121 16.2079L4.40625 16.5873L6.95433 19.1361L10.5039 18.5731L12.0159 18.329L13.8066 18.041L14.4294 17.9409L13.7454 22.2609L18.0654 21.5777L17.4311 25.5009L16.8457 29.0289L19.4161 31.5993L19.7545 29.5034L20.9843 21.8894L21.1117 21.0974L21.1369 20.9354L21.5689 18.2837L22.3083 13.703L17.7212 14.4367ZM29.0158 16.8343L26.6643 17.2389L23.9859 17.6709L22.875 17.8502L22.4034 20.8973L28.7955 19.8648L29.2203 19.7928L31.5963 19.4105L29.0158 16.8343ZM16.5872 4.40637L16.251 6.49437L15.1199 13.5137L18.1698 13.0205L18.3318 12.0125L18.7638 9.34413L18.8264 9.02589L19.1634 6.97533L16.5872 4.40637Z" fill="url(#paint2_linear_3490_704)"></path></g><defs><linearGradient id="paint0_linear_3490_704" x1="6.48774" y1="3.98376" x2="29.2124" y2="31.6519" gradientUnits="userSpaceOnUse"><stop stop-color="#3FCBFF"></stop><stop offset="1" stop-color="#233DFF"></stop></linearGradient><linearGradient id="paint1_linear_3490_704" x1="3.0166" y1="18" x2="32.983" y2="18" gradientUnits="userSpaceOnUse"><stop stop-color="#3FABFF"></stop><stop offset="1" stop-color="#3B5BFF"></stop></linearGradient><linearGradient id="paint2_linear_3490_704" x1="11.9095" y1="24.0905" x2="24.0912" y2="11.9089" gradientUnits="userSpaceOnUse"><stop stop-color="white"></stop><stop offset="1" stop-color="#AAD5FF"></stop></linearGradient><clipPath id="clip0_3490_704"><rect width="36" height="36" fill="white"></rect></clipPath></defs></svg>