<svg width="588" height="214" viewBox="0 0 588 214" fill="none" xmlns="http://www.w3.org/2000/svg">
<g style="mix-blend-mode:color-dodge">
<path d="M113.364 76.756L107.962 107.392C107.715 108.872 107.592 110.13 107.592 111.166C107.592 113.978 108.332 116.099 109.812 117.53C111.292 118.961 113.438 119.676 116.25 119.676C119.604 119.676 122.367 118.665 124.538 116.642C126.708 114.57 128.164 111.487 128.904 107.392L134.306 76.756H144.666L139.338 107.392C138.45 112.227 136.797 116.321 134.38 119.676C131.962 122.981 129.027 125.448 125.574 127.076C122.12 128.704 118.371 129.518 114.326 129.518C108.998 129.518 104.78 128.137 101.672 125.374C98.613 122.611 97.0836 118.541 97.0836 113.164C97.0836 111.24 97.2563 109.316 97.6016 107.392L103.004 76.756H113.364ZM196.215 129H185.781L168.687 93.48L162.397 129H151.963L161.139 76.756H171.573L188.667 112.572L194.957 76.756H205.391L196.215 129ZM242.139 76.756C247.467 76.756 251.487 77.94 254.201 80.308C256.914 82.6267 258.271 85.7347 258.271 89.632C258.271 90.816 258.172 91.9013 257.975 92.888C257.284 96.8347 255.582 100.14 252.869 102.804C250.205 105.468 246.727 107.244 242.435 108.132L251.833 129H240.289L231.631 108.65H227.043L223.491 129H213.057L222.233 76.756H242.139ZM247.245 93.554C247.343 93.11 247.393 92.4687 247.393 91.63C247.393 87.5847 244.852 85.562 239.771 85.562H231.187L228.301 101.472H236.885C242.854 101.472 246.307 98.8327 247.245 93.554ZM284.186 85.044L281.892 98.586H300.318L298.912 106.578H280.412L277.97 120.638H298.69L297.21 129H266.056L275.232 76.756H306.386L304.906 85.044H284.186ZM337.273 102.434L354.737 129H342.083L326.987 105.098L322.769 129H312.335L321.511 76.756H331.945L327.801 100.288L351.333 76.756H363.913L337.273 102.434ZM412.632 76.756L411.152 85.044H396.722L389.026 129H378.592L386.288 85.044H371.932L373.412 76.756H412.632ZM435.914 76.756L430.512 107.392C430.265 108.872 430.142 110.13 430.142 111.166C430.142 113.978 430.882 116.099 432.362 117.53C433.842 118.961 435.988 119.676 438.8 119.676C442.155 119.676 444.917 118.665 447.088 116.642C449.259 114.57 450.714 111.487 451.454 107.392L456.856 76.756H467.216L461.888 107.392C461 112.227 459.347 116.321 456.93 119.676C454.513 122.981 451.577 125.448 448.124 127.076C444.671 128.704 440.921 129.518 436.876 129.518C431.548 129.518 427.33 128.137 424.222 125.374C421.163 122.611 419.634 118.541 419.634 113.164C419.634 111.24 419.807 109.316 420.152 107.392L425.554 76.756H435.914ZM512.772 116.346C512.377 118.714 511.366 120.909 509.738 122.932C508.11 124.905 505.939 126.509 503.226 127.742C500.562 128.926 497.454 129.518 493.902 129.518C490.054 129.518 486.748 128.852 483.986 127.52C481.223 126.188 479.126 124.363 477.696 122.044C476.265 119.676 475.574 116.963 475.624 113.904H486.65C486.502 116.025 487.069 117.801 488.352 119.232C489.634 120.613 491.534 121.304 494.05 121.304C496.418 121.304 498.292 120.613 499.674 119.232C501.055 117.801 501.746 116.05 501.746 113.978C501.746 112.547 501.326 111.314 500.488 110.278C499.649 109.242 498.588 108.403 497.306 107.762C496.072 107.121 494.37 106.356 492.2 105.468C489.388 104.333 487.118 103.273 485.392 102.286C483.714 101.299 482.259 99.9427 481.026 98.216C479.842 96.4893 479.25 94.294 479.25 91.63C479.25 90.446 479.348 89.2867 479.546 88.152C480.187 84.452 482.21 81.5167 485.614 79.346C489.067 77.126 493.236 76.016 498.12 76.016C503.99 76.016 508.406 77.3727 511.366 80.086C514.326 82.75 515.88 86.2773 516.028 90.668H504.78C504.829 88.7933 504.286 87.264 503.152 86.08C502.017 84.8467 500.29 84.23 497.972 84.23C495.85 84.23 494.099 84.822 492.718 86.006C491.336 87.1407 490.646 88.7687 490.646 90.89C490.646 92.2713 491.04 93.4307 491.83 94.368C492.668 95.256 493.68 95.996 494.864 96.588C496.048 97.18 497.725 97.92 499.896 98.808C502.708 99.8933 504.977 100.929 506.704 101.916C508.48 102.853 509.984 104.21 511.218 105.986C512.5 107.762 513.142 110.031 513.142 112.794C513.142 113.682 513.018 114.866 512.772 116.346Z" fill="#FF5ABD"/>
</g>
<g style="mix-blend-mode:color-dodge" filter="url(#filter0_d_727_43459)">
<path d="M102.46 76.756L97.0584 107.392C96.8118 108.872 96.6884 110.13 96.6884 111.166C96.6884 113.978 97.4284 116.099 98.9084 117.53C100.388 118.961 102.534 119.676 105.346 119.676C108.701 119.676 111.464 118.665 113.634 116.642C115.805 114.57 117.26 111.487 118 107.392L123.402 76.756H133.762L128.434 107.392C127.546 112.227 125.894 116.321 123.476 119.676C121.059 122.981 118.124 125.448 114.67 127.076C111.217 128.704 107.468 129.518 103.422 129.518C98.0944 129.518 93.8764 128.137 90.7684 125.374C87.7098 122.611 86.1804 118.541 86.1804 113.164C86.1804 111.24 86.3531 109.316 86.6984 107.392L92.1004 76.756H102.46ZM185.312 129H174.878L157.784 93.48L151.494 129H141.06L150.236 76.756H160.67L177.764 112.572L184.054 76.756H194.488L185.312 129ZM231.235 76.756C236.563 76.756 240.584 77.94 243.297 80.308C246.011 82.6267 247.367 85.7347 247.367 89.632C247.367 90.816 247.269 91.9013 247.071 92.888C246.381 96.8347 244.679 100.14 241.965 102.804C239.301 105.468 235.823 107.244 231.531 108.132L240.929 129H229.385L220.727 108.65H216.139L212.587 129H202.153L211.329 76.756H231.235ZM236.341 93.554C236.44 93.11 236.489 92.4687 236.489 91.63C236.489 87.5847 233.949 85.562 228.867 85.562H220.283L217.397 101.472H225.981C231.951 101.472 235.404 98.8327 236.341 93.554ZM273.283 85.044L270.989 98.586H289.415L288.009 106.578H269.509L267.067 120.638H287.787L286.307 129H255.153L264.329 76.756H295.483L294.003 85.044H273.283ZM326.37 102.434L343.834 129H331.18L316.084 105.098L311.866 129H301.432L310.608 76.756H321.042L316.898 100.288L340.43 76.756H353.01L326.37 102.434ZM401.729 76.756L400.249 85.044H385.819L378.123 129H367.689L375.385 85.044H361.029L362.509 76.756H401.729ZM425.011 76.756L419.609 107.392C419.362 108.872 419.239 110.13 419.239 111.166C419.239 113.978 419.979 116.099 421.459 117.53C422.939 118.961 425.085 119.676 427.897 119.676C431.251 119.676 434.014 118.665 436.185 116.642C438.355 114.57 439.811 111.487 440.551 107.392L445.953 76.756H456.313L450.985 107.392C450.097 112.227 448.444 116.321 446.027 119.676C443.609 122.981 440.674 125.448 437.221 127.076C433.767 128.704 430.018 129.518 425.973 129.518C420.645 129.518 416.427 128.137 413.319 125.374C410.26 122.611 408.731 118.541 408.731 113.164C408.731 111.24 408.903 109.316 409.249 107.392L414.651 76.756H425.011ZM501.868 116.346C501.474 118.714 500.462 120.909 498.834 122.932C497.206 124.905 495.036 126.509 492.322 127.742C489.658 128.926 486.55 129.518 482.998 129.518C479.15 129.518 475.845 128.852 473.082 127.52C470.32 126.188 468.223 124.363 466.792 122.044C465.362 119.676 464.671 116.963 464.72 113.904H475.746C475.598 116.025 476.166 117.801 477.448 119.232C478.731 120.613 480.63 121.304 483.146 121.304C485.514 121.304 487.389 120.613 488.77 119.232C490.152 117.801 490.842 116.05 490.842 113.978C490.842 112.547 490.423 111.314 489.584 110.278C488.746 109.242 487.685 108.403 486.402 107.762C485.169 107.121 483.467 106.356 481.296 105.468C478.484 104.333 476.215 103.273 474.488 102.286C472.811 101.299 471.356 99.9427 470.122 98.216C468.938 96.4893 468.346 94.294 468.346 91.63C468.346 90.446 468.445 89.2867 468.642 88.152C469.284 84.452 471.306 81.5167 474.71 79.346C478.164 77.126 482.332 76.016 487.216 76.016C493.087 76.016 497.502 77.3727 500.462 80.086C503.422 82.75 504.976 86.2773 505.124 90.668H493.876C493.926 88.7933 493.383 87.264 492.248 86.08C491.114 84.8467 489.387 84.23 487.068 84.23C484.947 84.23 483.196 84.822 481.814 86.006C480.433 87.1407 479.742 88.7687 479.742 90.89C479.742 92.2713 480.137 93.4307 480.926 94.368C481.765 95.256 482.776 95.996 483.96 96.588C485.144 97.18 486.822 97.92 488.992 98.808C491.804 99.8933 494.074 100.929 495.8 101.916C497.576 102.853 499.081 104.21 500.314 105.986C501.597 107.762 502.238 110.031 502.238 112.794C502.238 113.682 502.115 114.866 501.868 116.346Z" fill="#3965FF"/>
</g>
<g style="mix-blend-mode:color-dodge" filter="url(#filter1_d_727_43459)">
<path d="M111.547 82.2076L106.145 112.844C105.898 114.324 105.775 115.582 105.775 116.618C105.775 119.43 106.515 121.551 107.995 122.982C109.475 124.412 111.621 125.128 114.433 125.128C117.787 125.128 120.55 124.116 122.721 122.094C124.891 120.022 126.347 116.938 127.087 112.844L132.489 82.2076H142.849L137.521 112.844C136.633 117.678 134.98 121.773 132.563 125.128C130.145 128.433 127.21 130.9 123.757 132.528C120.303 134.156 116.554 134.97 112.509 134.97C107.181 134.97 102.963 133.588 99.8545 130.826C96.7958 128.063 95.2665 123.993 95.2665 118.616C95.2665 116.692 95.4392 114.768 95.7845 112.844L101.187 82.2076H111.547ZM194.398 134.452H183.964L166.87 98.9316L160.58 134.452H150.146L159.322 82.2076H169.756L186.85 118.024L193.14 82.2076H203.574L194.398 134.452ZM240.322 82.2076C245.65 82.2076 249.67 83.3916 252.384 85.7596C255.097 88.0783 256.454 91.1863 256.454 95.0836C256.454 96.2676 256.355 97.3529 256.158 98.3396C255.467 102.286 253.765 105.592 251.052 108.256C248.388 110.92 244.91 112.696 240.618 113.584L250.016 134.452H238.472L229.814 114.102H225.226L221.674 134.452H211.24L220.416 82.2076H240.322ZM245.428 99.0056C245.526 98.5616 245.576 97.9203 245.576 97.0816C245.576 93.0363 243.035 91.0136 237.954 91.0136H229.37L226.484 106.924H235.068C241.037 106.924 244.49 104.284 245.428 99.0056ZM282.369 90.4956L280.075 104.038H298.501L297.095 112.03H278.595L276.153 126.09H296.873L295.393 134.452H264.239L273.415 82.2076H304.569L303.089 90.4956H282.369ZM335.456 107.886L352.92 134.452H340.266L325.17 110.55L320.952 134.452H310.518L319.694 82.2076H330.128L325.984 105.74L349.516 82.2076H362.096L335.456 107.886ZM410.815 82.2076L409.335 90.4956H394.905L387.209 134.452H376.775L384.471 90.4956H370.115L371.595 82.2076H410.815ZM434.097 82.2076L428.695 112.844C428.448 114.324 428.325 115.582 428.325 116.618C428.325 119.43 429.065 121.551 430.545 122.982C432.025 124.412 434.171 125.128 436.983 125.128C440.338 125.128 443.1 124.116 445.271 122.094C447.442 120.022 448.897 116.938 449.637 112.844L455.039 82.2076H465.399L460.071 112.844C459.183 117.678 457.53 121.773 455.113 125.128C452.696 128.433 449.76 130.9 446.307 132.528C442.854 134.156 439.104 134.97 435.059 134.97C429.731 134.97 425.513 133.588 422.405 130.826C419.346 128.063 417.817 123.993 417.817 118.616C417.817 116.692 417.99 114.768 418.335 112.844L423.737 82.2076H434.097ZM510.955 121.798C510.56 124.166 509.549 126.361 507.921 128.384C506.293 130.357 504.122 131.96 501.409 133.194C498.745 134.378 495.637 134.97 492.085 134.97C488.237 134.97 484.931 134.304 482.169 132.972C479.406 131.64 477.309 129.814 475.879 127.496C474.448 125.128 473.757 122.414 473.807 119.356H484.833C484.685 121.477 485.252 123.253 486.535 124.684C487.817 126.065 489.717 126.756 492.233 126.756C494.601 126.756 496.475 126.065 497.857 124.684C499.238 123.253 499.929 121.502 499.929 119.43C499.929 117.999 499.509 116.766 498.671 115.73C497.832 114.694 496.771 113.855 495.489 113.214C494.255 112.572 492.553 111.808 490.383 110.92C487.571 109.785 485.301 108.724 483.575 107.738C481.897 106.751 480.442 105.394 479.209 103.668C478.025 101.941 477.433 99.7456 477.433 97.0816C477.433 95.8976 477.531 94.7383 477.729 93.6036C478.37 89.9036 480.393 86.9683 483.797 84.7976C487.25 82.5776 491.419 81.4676 496.303 81.4676C502.173 81.4676 506.589 82.8243 509.549 85.5376C512.509 88.2016 514.063 91.7289 514.211 96.1196H502.963C503.012 94.2449 502.469 92.7156 501.335 91.5316C500.2 90.2983 498.473 89.6816 496.155 89.6816C494.033 89.6816 492.282 90.2736 490.901 91.4576C489.519 92.5923 488.829 94.2203 488.829 96.3416C488.829 97.7229 489.223 98.8823 490.013 99.8196C490.851 100.708 491.863 101.448 493.047 102.04C494.231 102.632 495.908 103.372 498.079 104.26C500.891 105.345 503.16 106.381 504.887 107.368C506.663 108.305 508.167 109.662 509.401 111.438C510.683 113.214 511.325 115.483 511.325 118.246C511.325 119.134 511.201 120.318 510.955 121.798Z" fill="#EDFF1F"/>
</g>
<g style="mix-blend-mode:color-dodge" filter="url(#filter2_d_727_43459)">
<path d="M107.912 87.6592L102.51 118.295C102.263 119.775 102.14 121.033 102.14 122.069C102.14 124.881 102.88 127.003 104.36 128.433C105.84 129.864 107.986 130.579 110.798 130.579C114.153 130.579 116.915 129.568 119.086 127.545C121.257 125.473 122.712 122.39 123.452 118.295L128.854 87.6592H139.214L133.886 118.295C132.998 123.13 131.345 127.225 128.928 130.579C126.511 133.885 123.575 136.351 120.122 137.979C116.669 139.607 112.919 140.421 108.874 140.421C103.546 140.421 99.3281 139.04 96.2201 136.277C93.1614 133.515 91.6321 129.445 91.6321 124.067C91.6321 122.143 91.8048 120.219 92.1501 118.295L97.5521 87.6592H107.912ZM190.764 139.903H180.33L163.236 104.383L156.946 139.903H146.512L155.688 87.6592H166.122L183.216 123.475L189.506 87.6592H199.94L190.764 139.903ZM236.687 87.6592C242.015 87.6592 246.036 88.8432 248.749 91.2112C251.462 93.5299 252.819 96.6379 252.819 100.535C252.819 101.719 252.72 102.805 252.523 103.791C251.832 107.738 250.13 111.043 247.417 113.707C244.753 116.371 241.275 118.147 236.983 119.035L246.381 139.903H234.837L226.179 119.553H221.591L218.039 139.903H207.605L216.781 87.6592H236.687ZM241.793 104.457C241.892 104.013 241.941 103.372 241.941 102.533C241.941 98.4879 239.4 96.4652 234.319 96.4652H225.735L222.849 112.375H231.433C237.402 112.375 240.856 109.736 241.793 104.457ZM278.735 95.9472L276.441 109.489H294.867L293.461 117.481H274.961L272.519 131.541H293.239L291.759 139.903H260.605L269.781 87.6592H300.935L299.455 95.9472H278.735ZM331.822 113.337L349.286 139.903H336.632L321.536 116.001L317.318 139.903H306.884L316.06 87.6592H326.494L322.35 111.191L345.882 87.6592H358.462L331.822 113.337ZM407.181 87.6592L405.701 95.9472H391.271L383.575 139.903H373.141L380.837 95.9472H366.481L367.961 87.6592H407.181ZM430.462 87.6592L425.06 118.295C424.814 119.775 424.69 121.033 424.69 122.069C424.69 124.881 425.43 127.003 426.91 128.433C428.39 129.864 430.536 130.579 433.348 130.579C436.703 130.579 439.466 129.568 441.636 127.545C443.807 125.473 445.262 122.39 446.002 118.295L451.404 87.6592H461.764L456.436 118.295C455.548 123.13 453.896 127.225 451.478 130.579C449.061 133.885 446.126 136.351 442.672 137.979C439.219 139.607 435.47 140.421 431.424 140.421C426.096 140.421 421.878 139.04 418.77 136.277C415.712 133.515 414.182 129.445 414.182 124.067C414.182 122.143 414.355 120.219 414.7 118.295L420.102 87.6592H430.462ZM507.32 127.249C506.925 129.617 505.914 131.813 504.286 133.835C502.658 135.809 500.487 137.412 497.774 138.645C495.11 139.829 492.002 140.421 488.45 140.421C484.602 140.421 481.297 139.755 478.534 138.423C475.771 137.091 473.675 135.266 472.244 132.947C470.813 130.579 470.123 127.866 470.172 124.807H481.198C481.05 126.929 481.617 128.705 482.9 130.135C484.183 131.517 486.082 132.207 488.598 132.207C490.966 132.207 492.841 131.517 494.222 130.135C495.603 128.705 496.294 126.953 496.294 124.881C496.294 123.451 495.875 122.217 495.036 121.181C494.197 120.145 493.137 119.307 491.854 118.665C490.621 118.024 488.919 117.259 486.748 116.371C483.936 115.237 481.667 114.176 479.94 113.189C478.263 112.203 476.807 110.846 475.574 109.119C474.39 107.393 473.798 105.197 473.798 102.533C473.798 101.349 473.897 100.19 474.094 99.0552C474.735 95.3552 476.758 92.4199 480.162 90.2492C483.615 88.0292 487.784 86.9192 492.668 86.9192C498.539 86.9192 502.954 88.2759 505.914 90.9892C508.874 93.6532 510.428 97.1805 510.576 101.571H499.328C499.377 99.6965 498.835 98.1672 497.7 96.9832C496.565 95.7499 494.839 95.1332 492.52 95.1332C490.399 95.1332 488.647 95.7252 487.266 96.9092C485.885 98.0439 485.194 99.6719 485.194 101.793C485.194 103.175 485.589 104.334 486.378 105.271C487.217 106.159 488.228 106.899 489.412 107.491C490.596 108.083 492.273 108.823 494.444 109.711C497.256 110.797 499.525 111.833 501.252 112.819C503.028 113.757 504.533 115.113 505.766 116.889C507.049 118.665 507.69 120.935 507.69 123.697C507.69 124.585 507.567 125.769 507.32 127.249Z" fill="#5AFFBA"/>
</g>
<g style="mix-blend-mode:color-dodge" opacity="0.9">
<g style="mix-blend-mode:color-dodge">
<path d="M104.278 80.3904L106.067 80.706L106.443 78.5732H104.278V80.3904ZM98.8757 111.026L97.0861 110.711L97.0846 110.719L97.0832 110.728L98.8757 111.026ZM100.726 121.164L99.4627 122.471L100.726 121.164ZM115.452 120.276L116.691 121.606L116.699 121.598L116.706 121.591L115.452 120.276ZM119.818 111.026L121.606 111.35L121.607 111.342L119.818 111.026ZM125.22 80.3904V78.5732H123.695L123.43 80.0748L125.22 80.3904ZM135.58 80.3904L137.37 80.7018L137.74 78.5732H135.58V80.3904ZM130.252 111.026L132.039 111.355L132.041 111.346L132.042 111.338L130.252 111.026ZM125.294 123.31L126.761 124.383L126.768 124.373L125.294 123.31ZM116.488 130.71L117.263 132.354L116.488 130.71ZM92.5857 129.008L91.3677 130.357L91.373 130.362L91.3784 130.367L92.5857 129.008ZM88.5157 111.026L90.3043 111.347L90.3053 111.342L88.5157 111.026ZM93.9177 80.3904V78.5732H92.3929L92.1281 80.0748L93.9177 80.3904ZM102.488 80.0748L97.0861 110.711L100.665 111.342L106.067 80.706L102.488 80.0748ZM97.0832 110.728C96.8267 112.267 96.6885 113.631 96.6885 114.8H100.323C100.323 113.898 100.431 112.746 100.668 111.325L97.0832 110.728ZM96.6885 114.8C96.6885 117.919 97.5142 120.587 99.4627 122.471L101.989 119.858C100.977 118.88 100.323 117.305 100.323 114.8H96.6885ZM99.4627 122.471C101.39 124.334 104.056 125.128 107.164 125.128V121.493C104.647 121.493 103.022 120.856 101.989 119.858L99.4627 122.471ZM107.164 125.128C110.913 125.128 114.139 123.984 116.691 121.606L114.213 118.947C112.423 120.615 110.123 121.493 107.164 121.493V125.128ZM116.706 121.591C119.245 119.168 120.823 115.68 121.606 111.35L118.029 110.703C117.332 114.562 116 117.241 114.197 118.962L116.706 121.591ZM121.607 111.342L127.009 80.706L123.43 80.0748L118.028 110.711L121.607 111.342ZM125.22 82.2076H135.58V78.5732H125.22V82.2076ZM133.789 80.079L128.461 110.715L132.042 111.338L137.37 80.7018L133.789 80.079ZM128.464 110.698C127.616 115.317 126.052 119.149 123.819 122.248L126.768 124.373C129.37 120.762 131.111 116.405 132.039 111.355L128.464 110.698ZM123.827 122.238C121.575 125.316 118.872 127.578 115.713 129.067L117.263 132.354C121.01 130.587 124.177 127.915 126.761 124.383L123.827 122.238ZM115.713 129.067C112.516 130.574 109.033 131.335 105.24 131.335V134.97C109.537 134.97 113.553 134.103 117.263 132.354L115.713 129.067ZM105.24 131.335C100.228 131.335 96.4832 130.042 93.793 127.65L91.3784 130.367C94.9042 133.501 99.5955 134.97 105.24 134.97V131.335ZM93.8038 127.66C91.2343 125.339 89.8149 121.827 89.8149 116.798H86.1805C86.1805 122.524 87.8198 127.152 91.3677 130.357L93.8038 127.66ZM89.8149 116.798C89.8149 114.984 89.9777 113.167 90.3043 111.347L86.7271 110.705C86.363 112.734 86.1805 114.765 86.1805 116.798H89.8149ZM90.3053 111.342L95.7073 80.706L92.1281 80.0748L86.7261 110.711L90.3053 111.342ZM93.9177 82.2076H104.278V78.5732H93.9177V82.2076ZM187.129 132.634V134.452H188.655L188.919 132.949L187.129 132.634ZM176.695 132.634L175.058 133.422L175.553 134.452H176.695V132.634ZM159.601 97.1144L161.239 96.3264L158.795 91.2478L157.812 96.7975L159.601 97.1144ZM153.311 132.634V134.452H154.835L155.101 132.951L153.311 132.634ZM142.877 132.634L141.088 132.32L140.713 134.452H142.877V132.634ZM152.053 80.3904V78.5732H150.528L150.264 80.076L152.053 80.3904ZM162.487 80.3904L164.127 79.6077L163.634 78.5732H162.487V80.3904ZM179.581 116.206L177.941 116.989L180.388 122.116L181.371 116.521L179.581 116.206ZM185.871 80.3904V78.5732H184.345L184.082 80.0761L185.871 80.3904ZM196.305 80.3904L198.095 80.7048L198.47 78.5732H196.305V80.3904ZM187.129 130.817H176.695V134.452H187.129V130.817ZM178.333 131.846L161.239 96.3264L157.964 97.9024L175.058 133.422L178.333 131.846ZM157.812 96.7975L151.522 132.318L155.101 132.951L161.391 97.4313L157.812 96.7975ZM153.311 130.817H142.877V134.452H153.311V130.817ZM144.667 132.949L153.843 80.7048L150.264 80.076L141.088 132.32L144.667 132.949ZM152.053 82.2076H162.487V78.5732H152.053V82.2076ZM160.847 81.1731L177.941 116.989L181.221 115.424L164.127 79.6077L160.847 81.1731ZM181.371 116.521L187.661 80.7047L184.082 80.0761L177.792 115.892L181.371 116.521ZM185.871 82.2076H196.305V78.5732H185.871V82.2076ZM194.516 80.076L185.34 132.32L188.919 132.949L198.095 80.7048L194.516 80.076ZM245.115 83.9424L243.92 85.3115L243.927 85.3177L243.934 85.3239L245.115 83.9424ZM248.889 96.5224L247.107 96.166L247.103 96.1875L247.099 96.2091L248.889 96.5224ZM243.783 106.438L242.51 105.142L242.504 105.148L242.498 105.153L243.783 106.438ZM233.349 111.766L232.981 109.987L230.761 110.446L231.692 112.513L233.349 111.766ZM242.747 132.634V134.452H245.558L244.404 131.888L242.747 132.634ZM231.203 132.634L229.531 133.346L230.001 134.452H231.203V132.634ZM222.545 112.284L224.217 111.573L223.746 110.467H222.545V112.284ZM217.957 112.284V110.467H216.429L216.167 111.972L217.957 112.284ZM214.405 132.634V134.452H215.932L216.195 132.947L214.405 132.634ZM203.971 132.634L202.181 132.32L201.807 134.452H203.971V132.634ZM213.147 80.3904V78.5732H211.621L211.357 80.076L213.147 80.3904ZM238.159 97.1884L236.385 96.7942L236.376 96.8323L236.37 96.8707L238.159 97.1884ZM222.101 89.1964V87.3792H220.584L220.313 88.8721L222.101 89.1964ZM219.215 105.106L217.427 104.782L217.038 106.924H219.215V105.106ZM233.053 82.2076C238.147 82.2076 241.665 83.3436 243.92 85.3115L246.31 82.5733C243.138 79.8052 238.615 78.5732 233.053 78.5732V82.2076ZM243.934 85.3239C246.203 87.263 247.368 89.8453 247.368 93.2664H251.002C251.002 88.8929 249.453 85.2592 246.295 82.5609L243.934 85.3239ZM247.368 93.2664C247.368 94.3511 247.277 95.3151 247.107 96.166L250.671 96.8788C250.895 95.7564 251.002 94.5497 251.002 93.2664H247.368ZM247.099 96.2091C246.47 99.8034 244.937 102.758 242.51 105.142L245.056 107.735C248.055 104.791 249.926 101.135 250.679 96.8356L247.099 96.2091ZM242.498 105.153C240.123 107.528 236.983 109.159 232.981 109.987L233.717 113.546C238.298 112.598 242.114 110.677 245.068 107.723L242.498 105.153ZM231.692 112.513L241.09 133.381L244.404 131.888L235.006 111.02L231.692 112.513ZM242.747 130.817H231.203V134.452H242.747V130.817ZM232.875 131.923L224.217 111.573L220.873 112.996L229.531 133.346L232.875 131.923ZM222.545 110.467H217.957V114.102H222.545V110.467ZM216.167 111.972L212.615 132.322L216.195 132.947L219.747 112.597L216.167 111.972ZM214.405 130.817H203.971V134.452H214.405V130.817ZM205.761 132.949L214.937 80.7048L211.357 80.076L202.181 132.32L205.761 132.949ZM213.147 82.2076H233.053V78.5732H213.147V82.2076ZM239.933 97.5826C240.075 96.9432 240.124 96.1445 240.124 95.2644H236.49C236.49 96.0616 236.44 96.5456 236.385 96.7942L239.933 97.5826ZM240.124 95.2644C240.124 92.8376 239.341 90.7312 237.533 89.2917C235.804 87.9151 233.418 87.3792 230.685 87.3792V91.0136C233.033 91.0136 234.458 91.489 235.269 92.1351C236.002 92.7182 236.49 93.6459 236.49 95.2644H240.124ZM230.685 87.3792H222.101V91.0136H230.685V87.3792ZM220.313 88.8721L217.427 104.782L221.003 105.431L223.889 89.5207L220.313 88.8721ZM219.215 106.924H227.799V103.289H219.215V106.924ZM227.799 106.924C231.036 106.924 233.826 106.209 235.969 104.571C238.137 102.914 239.419 100.484 239.948 97.5061L236.37 96.8707C235.961 99.1716 235.048 100.701 233.762 101.683C232.452 102.684 230.531 103.289 227.799 103.289V106.924ZM275.1 88.6784V86.8612H273.565L273.309 88.3749L275.1 88.6784ZM272.806 102.22L271.015 101.917L270.655 104.038H272.806V102.22ZM291.232 102.22L293.022 102.535L293.397 100.403H291.232V102.22ZM289.826 110.212V112.03H291.352L291.616 110.527L289.826 110.212ZM271.326 110.212V108.395H269.798L269.536 109.901L271.326 110.212ZM268.884 124.272L267.094 123.961L266.724 126.09H268.884V124.272ZM289.604 124.272L291.394 124.589L291.771 122.455H289.604V124.272ZM288.124 132.634V134.452H289.648L289.914 132.951L288.124 132.634ZM256.97 132.634L255.181 132.32L254.806 134.452H256.97V132.634ZM266.146 80.3904V78.5732H264.62L264.357 80.076L266.146 80.3904ZM297.3 80.3904L299.089 80.7098L299.471 78.5732H297.3V80.3904ZM295.82 88.6784V90.4956H297.342L297.609 88.9978L295.82 88.6784ZM273.309 88.3749L271.015 101.917L274.598 102.524L276.892 88.9819L273.309 88.3749ZM272.806 104.038H291.232V100.403H272.806V104.038ZM289.443 101.906L288.037 109.898L291.616 110.527L293.022 102.535L289.443 101.906ZM289.826 108.395H271.326V112.03H289.826V108.395ZM269.536 109.901L267.094 123.961L270.675 124.583L273.117 110.523L269.536 109.901ZM268.884 126.09H289.604V122.455H268.884V126.09ZM287.815 123.956L286.335 132.318L289.914 132.951L291.394 124.589L287.815 123.956ZM288.124 130.817H256.97V134.452H288.124V130.817ZM258.76 132.949L267.936 80.7048L264.357 80.076L255.181 132.32L258.76 132.949ZM266.146 82.2076H297.3V78.5732H266.146V82.2076ZM295.511 80.0709L294.031 88.3589L297.609 88.9978L299.089 80.7098L295.511 80.0709ZM295.82 86.8612H275.1V90.4956H295.82V86.8612ZM328.187 106.068L326.926 104.76L325.84 105.807L326.669 107.067L328.187 106.068ZM345.651 132.634V134.452H349.021L347.17 131.636L345.651 132.634ZM332.997 132.634L331.461 133.605L331.996 134.452H332.997V132.634ZM317.901 108.732L319.438 107.762L316.928 103.789L316.112 108.417L317.901 108.732ZM313.683 132.634V134.452H315.208L315.473 132.95L313.683 132.634ZM303.249 132.634L301.459 132.32L301.085 134.452H303.249V132.634ZM312.425 80.3904V78.5732H310.899L310.635 80.076L312.425 80.3904ZM322.859 80.3904L324.649 80.7056L325.024 78.5732H322.859V80.3904ZM318.715 103.922L316.926 103.607L315.926 109.281L320 105.207L318.715 103.922ZM342.247 80.3904V78.5732H341.495L340.962 79.1054L342.247 80.3904ZM354.827 80.3904L356.088 81.6988L359.331 78.5732H354.827V80.3904ZM326.669 107.067L344.133 133.633L347.17 131.636L329.706 105.07L326.669 107.067ZM345.651 130.817H332.997V134.452H345.651V130.817ZM334.534 131.664L319.438 107.762L316.365 109.703L331.461 133.605L334.534 131.664ZM316.112 108.417L311.894 132.319L315.473 132.95L319.691 109.048L316.112 108.417ZM313.683 130.817H303.249V134.452H313.683V130.817ZM305.039 132.949L314.215 80.7048L310.635 80.076L301.459 132.32L305.039 132.949ZM312.425 82.2076H322.859V78.5732H312.425V82.2076ZM321.07 80.0752L316.926 103.607L320.505 104.238L324.649 80.7056L321.07 80.0752ZM320 105.207L343.532 81.6754L340.962 79.1054L317.43 102.637L320 105.207ZM342.247 82.2076H354.827V78.5732H342.247V82.2076ZM353.566 79.082L326.926 104.76L329.448 107.377L356.088 81.6988L353.566 79.082ZM403.546 80.3904L405.335 80.7098L405.717 78.5732H403.546V80.3904ZM402.066 88.6784V90.4956H403.588L403.855 88.9978L402.066 88.6784ZM387.636 88.6784V86.8612H386.11L385.846 88.365L387.636 88.6784ZM379.94 132.634V134.452H381.467L381.73 132.948L379.94 132.634ZM369.506 132.634L367.716 132.321L367.343 134.452H369.506V132.634ZM377.202 88.6784L378.992 88.9918L379.365 86.8612H377.202V88.6784ZM362.846 88.6784L361.058 88.3589L360.676 90.4956H362.846V88.6784ZM364.326 80.3904V78.5732H362.805L362.538 80.0709L364.326 80.3904ZM401.758 80.0709L400.278 88.3589L403.855 88.9978L405.335 80.7098L401.758 80.0709ZM402.066 86.8612H387.636V90.4956H402.066V86.8612ZM385.846 88.365L378.15 132.321L381.73 132.948L389.426 88.9918L385.846 88.365ZM379.94 130.817H369.506V134.452H379.94V130.817ZM371.296 132.948L378.992 88.9918L375.412 88.365L367.716 132.321L371.296 132.948ZM377.202 86.8612H362.846V90.4956H377.202V86.8612ZM364.635 88.9978L366.115 80.7098L362.538 80.0709L361.058 88.3589L364.635 88.9978ZM364.326 82.2076H403.546V78.5732H364.326V82.2076ZM426.828 80.3904L428.618 80.706L428.994 78.5732H426.828V80.3904ZM421.426 111.026L419.637 110.711L419.635 110.719L419.634 110.728L421.426 111.026ZM423.276 121.164L422.013 122.471L423.276 121.164ZM438.002 120.276L439.241 121.606L439.249 121.598L439.257 121.591L438.002 120.276ZM442.368 111.026L444.156 111.35L444.158 111.342L442.368 111.026ZM447.77 80.3904V78.5732H446.245L445.98 80.0748L447.77 80.3904ZM458.13 80.3904L459.92 80.7018L460.291 78.5732H458.13V80.3904ZM452.802 111.026L454.589 111.355L454.591 111.346L454.592 111.338L452.802 111.026ZM447.844 123.31L449.311 124.383L449.318 124.373L447.844 123.31ZM439.038 130.71L439.813 132.354L439.038 130.71ZM415.136 129.008L413.918 130.357L413.923 130.362L413.929 130.367L415.136 129.008ZM411.066 111.026L412.855 111.347L412.856 111.342L411.066 111.026ZM416.468 80.3904V78.5732H414.943L414.678 80.0748L416.468 80.3904ZM425.038 80.0748L419.637 110.711L423.216 111.342L428.618 80.706L425.038 80.0748ZM419.634 110.728C419.377 112.267 419.239 113.631 419.239 114.8H422.873C422.873 113.898 422.982 112.746 423.219 111.325L419.634 110.728ZM419.239 114.8C419.239 117.919 420.065 120.587 422.013 122.471L424.539 119.858C423.528 118.88 422.873 117.305 422.873 114.8H419.239ZM422.013 122.471C423.94 124.334 426.607 125.128 429.714 125.128V121.493C427.198 121.493 425.572 120.856 424.539 119.858L422.013 122.471ZM429.714 125.128C433.464 125.128 436.689 123.984 439.241 121.606L436.763 118.947C434.974 120.615 432.674 121.493 429.714 121.493V125.128ZM439.257 121.591C441.795 119.168 443.374 115.68 444.156 111.35L440.58 110.703C439.882 114.562 438.55 117.241 436.747 118.962L439.257 121.591ZM444.158 111.342L449.56 80.706L445.98 80.0748L440.578 110.711L444.158 111.342ZM447.77 82.2076H458.13V78.5732H447.77V82.2076ZM456.34 80.079L451.012 110.715L454.592 111.338L459.92 80.7018L456.34 80.079ZM451.015 110.698C450.166 115.317 448.603 119.149 446.37 122.248L449.318 124.373C451.92 120.762 453.662 116.405 454.589 111.355L451.015 110.698ZM446.377 122.238C444.126 125.316 441.422 127.578 438.263 129.067L439.813 132.354C443.561 130.587 446.728 127.915 449.311 124.383L446.377 122.238ZM438.263 129.067C435.067 130.574 431.584 131.335 427.79 131.335V134.97C432.087 134.97 436.103 134.103 439.813 132.354L438.263 129.067ZM427.79 131.335C422.778 131.335 419.034 130.042 416.343 127.65L413.929 130.367C417.455 133.501 422.146 134.97 427.79 134.97V131.335ZM416.354 127.66C413.785 125.339 412.365 121.827 412.365 116.798H408.731C408.731 122.524 410.37 127.152 413.918 130.357L416.354 127.66ZM412.365 116.798C412.365 114.984 412.528 113.167 412.855 111.347L409.277 110.705C408.913 112.734 408.731 114.765 408.731 116.798H412.365ZM412.856 111.342L418.258 80.706L414.678 80.0748L409.276 110.711L412.856 111.342ZM416.468 82.2076H426.828V78.5732H416.468V82.2076ZM503.686 119.98L505.478 120.279L503.686 119.98ZM500.652 126.566L502.053 127.723L502.06 127.714L502.067 127.706L500.652 126.566ZM494.14 131.376L494.878 133.037L494.885 133.034L494.892 133.031L494.14 131.376ZM474.9 131.154L475.689 129.518L474.9 131.154ZM468.61 125.678L467.054 126.618L467.059 126.625L467.063 126.633L468.61 125.678ZM466.538 117.538V115.721H464.75L464.721 117.509L466.538 117.538ZM477.564 117.538L479.377 117.665L479.512 115.721H477.564V117.538ZM479.266 122.866L477.913 124.079L477.923 124.091L477.934 124.103L479.266 122.866ZM490.588 122.866L491.873 124.151L491.884 124.14L491.895 124.129L490.588 122.866ZM491.402 113.912L492.814 112.769L491.402 113.912ZM488.22 111.396L487.381 113.009L487.394 113.015L487.407 113.022L488.22 111.396ZM483.114 109.102L483.802 107.42L483.794 107.417L483.114 109.102ZM476.306 105.92L475.384 107.487L475.394 107.493L475.404 107.498L476.306 105.92ZM471.94 101.85L470.441 102.878L470.451 102.892L470.461 102.907L471.94 101.85ZM470.46 91.7864L472.25 92.0978L472.25 92.0968L470.46 91.7864ZM476.528 82.9804L477.505 84.5126L477.51 84.509L476.528 82.9804ZM502.28 83.7204L501.052 85.06L501.058 85.0656L501.064 85.0711L502.28 83.7204ZM506.942 94.3024V96.1196H508.821L508.758 94.2412L506.942 94.3024ZM495.694 94.3024L493.877 94.2546L493.828 96.1196H495.694V94.3024ZM494.066 89.7144L492.728 90.9447L492.741 90.9584L492.754 90.9717L494.066 89.7144ZM483.632 89.6404L484.785 91.0446L484.8 91.0325L484.814 91.0201L483.632 89.6404ZM482.744 98.0024L481.354 99.1729L481.387 99.2125L481.423 99.2501L482.744 98.0024ZM485.778 100.222L484.965 101.848L485.778 100.222ZM490.81 102.442L490.122 104.124L490.138 104.131L490.155 104.138L490.81 102.442ZM497.618 105.55L496.716 107.128L496.743 107.143L496.77 107.158L497.618 105.55ZM502.132 109.62L500.639 110.657L500.649 110.671L500.659 110.684L502.132 109.62ZM501.893 119.682C501.554 121.717 500.685 123.627 499.236 125.427L502.067 127.706C503.875 125.46 505.028 122.98 505.478 120.279L501.893 119.682ZM499.25 125.41C497.825 127.138 495.891 128.584 493.388 129.722L494.892 133.031C497.815 131.702 500.223 129.942 502.053 127.723L499.25 125.41ZM493.402 129.716C491.015 130.777 488.168 131.335 484.816 131.335V134.97C488.568 134.97 491.936 134.344 494.878 133.037L493.402 129.716ZM484.816 131.335C481.173 131.335 478.151 130.705 475.689 129.518L474.111 132.791C477.174 134.268 480.762 134.97 484.816 134.97V131.335ZM475.689 129.518C473.198 128.317 471.383 126.712 470.156 124.724L467.063 126.633C468.698 129.282 471.076 131.328 474.111 132.791L475.689 129.518ZM470.165 124.739C468.929 122.693 468.31 120.322 468.355 117.568L464.721 117.509C464.667 120.872 465.429 123.928 467.054 126.618L470.165 124.739ZM466.538 119.356H477.564V115.721H466.538V119.356ZM475.751 117.412C475.573 119.966 476.265 122.242 477.913 124.079L480.619 121.653C479.701 120.63 479.259 119.354 479.377 117.665L475.751 117.412ZM477.934 124.103C479.665 125.967 482.119 126.756 484.964 126.756V123.121C482.776 123.121 481.432 122.529 480.597 121.63L477.934 124.103ZM484.964 126.756C487.705 126.756 490.081 125.944 491.873 124.151L489.303 121.581C488.332 122.552 486.959 123.121 484.964 123.121V126.756ZM491.895 124.129C493.618 122.344 494.477 120.133 494.477 117.612H490.843C490.843 119.235 490.32 120.528 489.28 121.604L491.895 124.129ZM494.477 117.612C494.477 115.798 493.935 114.153 492.814 112.769L489.989 115.056C490.546 115.744 490.843 116.565 490.843 117.612H494.477ZM492.814 112.769C491.8 111.516 490.529 110.519 489.032 109.771L487.407 113.022C488.476 113.556 489.326 114.236 489.989 115.056L492.814 112.769ZM489.058 109.784C487.754 109.106 485.994 108.317 483.802 107.42L482.426 110.784C484.575 111.663 486.219 112.404 487.381 113.009L489.058 109.784ZM483.794 107.417C481.023 106.299 478.836 105.273 477.207 104.343L475.404 107.498C477.229 108.541 479.581 109.636 482.434 110.788L483.794 107.417ZM477.227 104.354C475.788 103.508 474.517 102.333 473.418 100.794L470.461 102.907C471.829 104.822 473.468 106.36 475.384 107.487L477.227 104.354ZM473.438 100.823C472.512 99.4716 471.981 97.6614 471.981 95.2644H468.347C468.347 98.1954 469 100.776 470.441 102.878L473.438 100.823ZM471.981 95.2644C471.981 94.1818 472.071 93.1268 472.25 92.0978L468.669 91.475C468.454 92.7154 468.347 93.979 468.347 95.2644H471.981ZM472.25 92.0968C472.797 88.9412 474.495 86.4316 477.505 84.5126L475.551 81.4482C471.752 83.8705 469.405 87.2316 468.669 91.476L472.25 92.0968ZM477.51 84.509C480.619 82.5106 484.431 81.4676 489.034 81.4676V77.8332C483.868 77.8332 479.343 79.0102 475.545 81.4518L477.51 84.509ZM489.034 81.4676C494.657 81.4676 498.553 82.7698 501.052 85.06L503.508 82.3808C500.086 79.2444 495.152 77.8332 489.034 77.8332V81.4676ZM501.064 85.0711C503.617 87.3689 504.992 90.4103 505.126 94.3636L508.758 94.2412C508.595 89.4132 506.862 85.3999 503.495 82.3697L501.064 85.0711ZM506.942 92.4852H495.694V96.1196H506.942V92.4852ZM497.51 94.3502C497.57 92.0663 496.897 90.0425 495.378 88.4571L492.754 90.9717C493.504 91.7543 493.916 92.7891 493.877 94.2546L497.51 94.3502ZM495.403 88.484C493.808 86.7506 491.511 86.0472 488.886 86.0472V89.6816C490.898 89.6816 492.054 90.2116 492.728 90.9447L495.403 88.484ZM488.886 86.0472C486.407 86.0472 484.213 86.7485 482.449 88.2607L484.814 91.0201C485.813 90.1642 487.122 89.6816 488.886 89.6816V86.0472ZM482.478 88.2362C480.597 89.7817 479.743 91.9719 479.743 94.5244H483.377C483.377 92.8342 483.904 91.7684 484.785 91.0446L482.478 88.2362ZM479.743 94.5244C479.743 96.2761 480.253 97.8662 481.354 99.1729L484.134 96.8319C483.655 96.2639 483.377 95.5354 483.377 94.5244H479.743ZM481.423 99.2501C482.419 100.305 483.607 101.169 484.965 101.848L486.59 98.597C485.581 98.0922 484.746 97.4755 484.065 96.7547L481.423 99.2501ZM484.965 101.848C486.209 102.47 487.936 103.23 490.122 104.124L491.498 100.76C489.343 99.8788 487.714 99.1588 486.59 98.597L484.965 101.848ZM490.155 104.138C492.921 105.205 495.098 106.204 496.716 107.128L498.519 103.973C496.684 102.924 494.323 101.85 491.464 100.747L490.155 104.138ZM496.77 107.158C498.269 107.949 499.559 109.101 500.639 110.657L503.624 108.584C502.238 106.588 500.519 105.027 498.466 103.943L496.77 107.158ZM500.659 110.684C501.665 112.078 502.239 113.947 502.239 116.428H505.873C505.873 113.384 505.164 110.715 503.605 108.556L500.659 110.684ZM502.239 116.428C502.239 117.171 502.133 118.243 501.893 119.682L505.478 120.279C505.732 118.758 505.873 117.461 505.873 116.428H502.239Z" fill="white"/>
</g>
</g>
<g style="mix-blend-mode:lighten" opacity="0.5" filter="url(#filter3_f_727_43459)">
<g style="mix-blend-mode:color-dodge">
<path d="M112.062 76.1871L106.764 106.233C106.522 107.684 106.401 108.918 106.401 109.934C106.401 112.692 107.127 114.772 108.578 116.175C110.03 117.578 112.135 118.28 114.892 118.28C118.182 118.28 120.892 117.288 123.021 115.304C125.149 113.272 126.577 110.248 127.303 106.233L132.6 76.1871H142.761L137.535 106.233C136.665 110.974 135.044 114.99 132.673 118.28C130.302 121.521 127.423 123.941 124.037 125.537C120.65 127.134 116.973 127.932 113.005 127.932C107.78 127.932 103.643 126.577 100.595 123.868C97.5957 121.159 96.0958 117.167 96.0958 111.893C96.0958 110.006 96.2652 108.119 96.6038 106.233L101.902 76.1871H112.062ZM193.317 127.424H183.084L166.319 92.5887L160.151 127.424H149.918L158.917 76.1871H169.15L185.914 111.313L192.083 76.1871H202.316L193.317 127.424ZM238.355 76.1871C243.58 76.1871 247.523 77.3482 250.184 79.6706C252.846 81.9446 254.176 84.9927 254.176 88.8149C254.176 89.9761 254.079 91.0405 253.886 92.0081C253.208 95.8787 251.539 99.1203 248.878 101.733C246.265 104.346 242.855 106.087 238.645 106.958L247.862 127.424H236.541L228.05 107.466H223.55L220.066 127.424H209.834L218.833 76.1871H238.355ZM243.363 92.6613C243.459 92.2258 243.508 91.5969 243.508 90.7744C243.508 86.807 241.016 84.8233 236.033 84.8233H227.614L224.784 100.427H233.202C239.057 100.427 242.443 97.8382 243.363 92.6613ZM279.592 84.3153L277.342 97.5963H295.413L294.034 105.434H275.891L273.496 119.223H293.817L292.365 127.424H261.812L270.811 76.1871H301.364L299.913 84.3153H279.592ZM331.656 101.37L348.783 127.424H336.373L321.568 103.983L317.431 127.424H307.198L316.198 76.1871H326.43L322.366 99.2655L345.445 76.1871H357.782L331.656 101.37ZM405.562 76.1871L404.111 84.3153H389.959L382.411 127.424H372.179L379.726 84.3153H365.647L367.098 76.1871H405.562ZM428.395 76.1871L423.097 106.233C422.856 107.684 422.735 108.918 422.735 109.934C422.735 112.692 423.46 114.772 424.912 116.175C426.363 117.578 428.468 118.28 431.226 118.28C434.516 118.28 437.225 117.288 439.354 115.304C441.483 113.272 442.91 110.248 443.636 106.233L448.934 76.1871H459.094L453.869 106.233C452.998 110.974 451.377 114.99 449.006 118.28C446.636 121.521 443.757 123.941 440.37 125.537C436.983 127.134 433.306 127.932 429.339 127.932C424.114 127.932 419.977 126.577 416.929 123.868C413.929 121.159 412.429 117.167 412.429 111.893C412.429 110.006 412.598 108.119 412.937 106.233L418.235 76.1871H428.395ZM503.772 115.014C503.385 117.336 502.393 119.489 500.796 121.473C499.199 123.408 497.071 124.981 494.41 126.19C491.797 127.351 488.749 127.932 485.265 127.932C481.491 127.932 478.25 127.279 475.54 125.973C472.831 124.666 470.775 122.876 469.372 120.602C467.969 118.28 467.291 115.619 467.34 112.619H478.153C478.008 114.699 478.564 116.441 479.822 117.844C481.08 119.199 482.943 119.876 485.41 119.876C487.733 119.876 489.571 119.199 490.926 117.844C492.281 116.441 492.958 114.724 492.958 112.692C492.958 111.289 492.547 110.079 491.724 109.063C490.902 108.047 489.862 107.224 488.604 106.595C487.394 105.966 485.725 105.217 483.596 104.346C480.838 103.233 478.613 102.193 476.919 101.225C475.274 100.257 473.847 98.9268 472.637 97.2334C471.476 95.54 470.896 93.387 470.896 90.7744C470.896 89.6132 470.992 88.4762 471.186 87.3634C471.815 83.7347 473.799 80.856 477.137 78.7271C480.524 76.5499 484.612 75.4613 489.402 75.4613C495.16 75.4613 499.49 76.7918 502.393 79.4529C505.296 82.0655 506.82 85.5249 506.965 89.8309H495.934C495.982 87.9924 495.45 86.4925 494.337 85.3313C493.224 84.1218 491.531 83.517 489.257 83.517C487.176 83.517 485.459 84.0976 484.104 85.2588C482.749 86.3716 482.072 87.9682 482.072 90.0486C482.072 91.4033 482.459 92.5403 483.233 93.4596C484.056 94.3305 485.048 95.0562 486.209 95.6368C487.37 96.2174 489.015 96.9431 491.144 97.814C493.902 98.8784 496.127 99.8945 497.821 100.862C499.562 101.781 501.038 103.112 502.248 104.854C503.505 106.595 504.134 108.821 504.134 111.53C504.134 112.401 504.014 113.563 503.772 115.014Z" fill="#FF5ABD"/>
</g>
<g style="mix-blend-mode:color-dodge" filter="url(#filter4_d_727_43459)">
<path d="M101.369 76.1871L96.071 106.233C95.8291 107.684 95.7082 108.918 95.7082 109.934C95.7082 112.692 96.4339 114.772 97.8854 116.175C99.3369 117.578 101.441 118.28 104.199 118.28C107.489 118.28 110.199 117.288 112.328 115.304C114.456 113.272 115.884 110.248 116.609 106.233L121.907 76.1871H132.068L126.842 106.233C125.971 110.974 124.351 114.99 121.98 118.28C119.609 121.521 116.73 123.941 113.344 125.537C109.957 127.134 106.28 127.932 102.312 127.932C97.0871 127.932 92.9504 126.577 89.9023 123.868C86.9026 121.159 85.4027 117.167 85.4027 111.893C85.4027 110.006 85.572 108.119 85.9107 106.233L91.2086 76.1871H101.369ZM182.624 127.424H172.391L155.626 92.5887L149.457 127.424H139.225L148.224 76.1871H158.457L175.221 111.313L181.39 76.1871H191.623L182.624 127.424ZM227.662 76.1871C232.887 76.1871 236.83 77.3482 239.491 79.6706C242.152 81.9446 243.483 84.9927 243.483 88.8149C243.483 89.9761 243.386 91.0405 243.193 92.0081C242.515 95.8787 240.846 99.1203 238.185 101.733C235.572 104.346 232.161 106.087 227.952 106.958L237.169 127.424H225.848L217.356 107.466H212.857L209.373 127.424H199.14L208.14 76.1871H227.662ZM232.669 92.6613C232.766 92.2258 232.815 91.5969 232.815 90.7744C232.815 86.807 230.323 84.8233 225.339 84.8233H216.921L214.091 100.427H222.509C228.363 100.427 231.75 97.8382 232.669 92.6613ZM268.899 84.3153L266.649 97.5963H284.72L283.341 105.434H265.198L262.803 119.223H283.123L281.672 127.424H251.118L260.118 76.1871H290.671L289.22 84.3153H268.899ZM320.963 101.37L338.09 127.424H325.68L310.875 103.983L306.738 127.424H296.505L305.504 76.1871H315.737L311.673 99.2655L334.752 76.1871H347.089L320.963 101.37ZM394.869 76.1871L393.418 84.3153H379.266L371.718 127.424H361.485L369.033 84.3153H354.954L356.405 76.1871H394.869ZM417.702 76.1871L412.404 106.233C412.162 107.684 412.041 108.918 412.041 109.934C412.041 112.692 412.767 114.772 414.219 116.175C415.67 117.578 417.775 118.28 420.533 118.28C423.823 118.28 426.532 117.288 428.661 115.304C430.79 113.272 432.217 110.248 432.943 106.233L438.241 76.1871H448.401L443.176 106.233C442.305 110.974 440.684 114.99 438.313 118.28C435.942 121.521 433.064 123.941 429.677 125.537C426.29 127.134 422.613 127.932 418.646 127.932C413.42 127.932 409.284 126.577 406.236 123.868C403.236 121.159 401.736 117.167 401.736 111.893C401.736 110.006 401.905 108.119 402.244 106.233L407.542 76.1871H417.702ZM493.078 115.014C492.691 117.336 491.7 119.489 490.103 121.473C488.506 123.408 486.378 124.981 483.716 126.19C481.104 127.351 478.056 127.932 474.572 127.932C470.798 127.932 467.557 127.279 464.847 125.973C462.138 124.666 460.082 122.876 458.679 120.602C457.275 118.28 456.598 115.619 456.647 112.619H467.46C467.315 114.699 467.871 116.441 469.129 117.844C470.387 119.199 472.25 119.876 474.717 119.876C477.04 119.876 478.878 119.199 480.233 117.844C481.588 116.441 482.265 114.724 482.265 112.692C482.265 111.289 481.854 110.079 481.031 109.063C480.209 108.047 479.169 107.224 477.911 106.595C476.701 105.966 475.032 105.217 472.903 104.346C470.145 103.233 467.92 102.193 466.226 101.225C464.581 100.257 463.154 98.9268 461.944 97.2334C460.783 95.54 460.203 93.387 460.203 90.7744C460.203 89.6132 460.299 88.4762 460.493 87.3634C461.122 83.7347 463.106 80.856 466.444 78.7271C469.831 76.5499 473.919 75.4613 478.709 75.4613C484.466 75.4613 488.797 76.7918 491.7 79.4529C494.603 82.0655 496.127 85.5249 496.272 89.8309H485.241C485.289 87.9924 484.757 86.4925 483.644 85.3313C482.531 84.1218 480.838 83.517 478.564 83.517C476.483 83.517 474.766 84.0976 473.411 85.2588C472.056 86.3716 471.379 87.9682 471.379 90.0486C471.379 91.4033 471.766 92.5403 472.54 93.4596C473.363 94.3305 474.354 95.0562 475.516 95.6368C476.677 96.2174 478.322 96.9431 480.451 97.814C483.208 98.8784 485.434 99.8945 487.127 100.862C488.869 101.781 490.345 103.112 491.554 104.854C492.812 106.595 493.441 108.821 493.441 111.53C493.441 112.401 493.32 113.563 493.078 115.014Z" fill="#3965FF"/>
</g>
<g style="mix-blend-mode:color-dodge" filter="url(#filter5_d_727_43459)">
<path d="M110.28 81.5335L104.982 111.579C104.74 113.03 104.619 114.264 104.619 115.28C104.619 118.038 105.345 120.118 106.796 121.522C108.248 122.925 110.352 123.626 113.11 123.626C116.4 123.626 119.109 122.634 121.238 120.651C123.367 118.619 124.794 115.595 125.52 111.579L130.818 81.5335H140.978L135.753 111.579C134.882 116.32 133.261 120.336 130.89 123.626C128.52 126.868 125.641 129.287 122.254 130.884C118.867 132.48 115.19 133.279 111.223 133.279C105.998 133.279 101.861 131.924 98.8129 129.214C95.8132 126.505 94.3134 122.513 94.3134 117.24C94.3134 115.353 94.4827 113.466 94.8214 111.579L100.119 81.5335H110.28ZM191.534 132.771H181.301L164.537 97.9351L158.368 132.771H148.135L157.134 81.5335H167.367L184.132 116.659L190.301 81.5335H200.533L191.534 132.771ZM236.572 81.5335C241.798 81.5335 245.741 82.6947 248.402 85.017C251.063 87.291 252.394 90.3391 252.394 94.1613C252.394 95.3225 252.297 96.3869 252.103 97.3546C251.426 101.225 249.757 104.467 247.096 107.079C244.483 109.692 241.072 111.434 236.863 112.305L246.08 132.771H234.758L226.267 112.813H221.767L218.284 132.771H208.051L217.05 81.5335H236.572ZM241.58 98.0077C241.677 97.5723 241.725 96.9433 241.725 96.1208C241.725 92.1534 239.234 90.1698 234.25 90.1698H225.832L223.001 105.773H231.42C237.274 105.773 240.661 103.185 241.58 98.0077ZM277.81 89.6617L275.56 102.943H293.631L292.252 110.781H274.108L271.713 124.57H292.034L290.583 132.771H260.029L269.028 81.5335H299.582L298.13 89.6617H277.81ZM329.873 106.717L347.001 132.771H334.591L319.786 109.329L315.649 132.771H305.416L314.415 81.5335H324.648L320.584 104.612L343.662 81.5335H356L329.873 106.717ZM403.78 81.5335L402.328 89.6617H388.177L380.629 132.771H370.396L377.944 89.6617H363.864L365.316 81.5335H403.78ZM426.613 81.5335L421.315 111.579C421.073 113.03 420.952 114.264 420.952 115.28C420.952 118.038 421.678 120.118 423.129 121.522C424.581 122.925 426.685 123.626 429.443 123.626C432.733 123.626 435.443 122.634 437.572 120.651C439.7 118.619 441.128 115.595 441.853 111.579L447.151 81.5335H457.312L452.086 111.579C451.215 116.32 449.595 120.336 447.224 123.626C444.853 126.868 441.974 129.287 438.588 130.884C435.201 132.48 431.524 133.279 427.556 133.279C422.331 133.279 418.194 131.924 415.146 129.214C412.147 126.505 410.647 122.513 410.647 117.24C410.647 115.353 410.816 113.466 411.155 111.579L416.453 81.5335H426.613ZM501.989 120.36C501.602 122.683 500.61 124.836 499.014 126.819C497.417 128.755 495.288 130.327 492.627 131.537C490.014 132.698 486.966 133.279 483.483 133.279C479.709 133.279 476.467 132.625 473.758 131.319C471.049 130.013 468.992 128.223 467.589 125.949C466.186 123.626 465.509 120.965 465.557 117.965H476.371C476.225 120.046 476.782 121.788 478.04 123.191C479.298 124.545 481.16 125.223 483.628 125.223C485.95 125.223 487.789 124.545 489.144 123.191C490.498 121.788 491.176 120.07 491.176 118.038C491.176 116.635 490.764 115.425 489.942 114.409C489.119 113.393 488.079 112.571 486.821 111.942C485.612 111.313 483.942 110.563 481.814 109.692C479.056 108.579 476.83 107.539 475.137 106.571C473.492 105.604 472.065 104.273 470.855 102.58C469.694 100.886 469.113 98.7335 469.113 96.1208C469.113 94.9596 469.21 93.8226 469.404 92.7098C470.033 89.0812 472.016 86.2024 475.355 84.0736C478.741 81.8964 482.83 80.8078 487.62 80.8078C493.377 80.8078 497.707 82.1383 500.61 84.7993C503.513 87.412 505.037 90.8713 505.182 95.1773H494.151C494.2 93.3388 493.667 91.839 492.555 90.6778C491.442 89.4682 489.748 88.8634 487.474 88.8634C485.394 88.8634 483.676 89.444 482.322 90.6052C480.967 91.718 480.29 93.3146 480.29 95.3951C480.29 96.7498 480.677 97.8868 481.451 98.806C482.273 99.6769 483.265 100.403 484.426 100.983C485.587 101.564 487.232 102.29 489.361 103.16C492.119 104.225 494.345 105.241 496.038 106.209C497.78 107.128 499.256 108.458 500.465 110.2C501.723 111.942 502.352 114.167 502.352 116.877C502.352 117.748 502.231 118.909 501.989 120.36Z" fill="#EDFF1F"/>
</g>
<g style="mix-blend-mode:color-dodge" filter="url(#filter6_d_727_43459)">
<path d="M106.715 86.8802L101.417 116.926C101.176 118.377 101.055 119.611 101.055 120.627C101.055 123.385 101.78 125.465 103.232 126.868C104.683 128.271 106.788 128.973 109.546 128.973C112.836 128.973 115.545 127.981 117.674 125.997C119.803 123.965 121.23 120.941 121.956 116.926L127.254 86.8802H137.414L132.189 116.926C131.318 121.667 129.697 125.683 127.326 128.973C124.956 132.215 122.077 134.634 118.69 136.23C115.303 137.827 111.626 138.625 107.659 138.625C102.434 138.625 98.2968 137.271 95.2487 134.561C92.249 131.852 90.7491 127.86 90.7491 122.586C90.7491 120.7 90.9185 118.813 91.2572 116.926L96.555 86.8802H106.715ZM187.97 138.117H177.737L160.973 103.282L154.804 138.117H144.571L153.57 86.8802H163.803L180.568 122.006L186.736 86.8802H196.969L187.97 138.117ZM233.008 86.8802C238.234 86.8802 242.177 88.0414 244.838 90.3638C247.499 92.6377 248.829 95.6858 248.829 99.5081C248.829 100.669 248.733 101.734 248.539 102.701C247.862 106.572 246.193 109.814 243.531 112.426C240.919 115.039 237.508 116.781 233.299 117.651L242.515 138.117H231.194L222.703 118.159H218.203L214.72 138.117H204.487L213.486 86.8802H233.008ZM238.016 103.354C238.113 102.919 238.161 102.29 238.161 101.468C238.161 97.5002 235.669 95.5165 230.686 95.5165H222.267L219.437 111.12H227.856C233.71 111.12 237.097 108.531 238.016 103.354ZM274.245 95.0085L271.996 108.289H290.066L288.688 116.127H270.544L268.149 129.916H288.47L287.018 138.117H256.465L265.464 86.8802H296.018L294.566 95.0085H274.245ZM326.309 112.063L343.436 138.117H331.026L316.221 114.676L312.085 138.117H301.852L310.851 86.8802H321.084L317.02 109.959L340.098 86.8802H352.436L326.309 112.063ZM400.216 86.8802L398.764 95.0085H384.612L377.065 138.117H366.832L374.38 95.0085H360.3L361.752 86.8802H400.216ZM423.049 86.8802L417.751 116.926C417.509 118.377 417.388 119.611 417.388 120.627C417.388 123.385 418.114 125.465 419.565 126.868C421.017 128.271 423.121 128.973 425.879 128.973C429.169 128.973 431.878 127.981 434.007 125.997C436.136 123.965 437.563 120.941 438.289 116.926L443.587 86.8802H453.747L448.522 116.926C447.651 121.667 446.03 125.683 443.66 128.973C441.289 132.215 438.41 134.634 435.023 136.23C431.637 137.827 427.959 138.625 423.992 138.625C418.767 138.625 414.63 137.271 411.582 134.561C408.582 131.852 407.082 127.86 407.082 122.586C407.082 120.7 407.252 118.813 407.59 116.926L412.888 86.8802H423.049ZM498.425 125.707C498.038 128.03 497.046 130.183 495.449 132.166C493.853 134.102 491.724 135.674 489.063 136.883C486.45 138.045 483.402 138.625 479.919 138.625C476.145 138.625 472.903 137.972 470.194 136.666C467.484 135.359 465.428 133.569 464.025 131.295C462.622 128.973 461.945 126.312 461.993 123.312H472.806C472.661 125.393 473.218 127.134 474.476 128.538C475.734 129.892 477.596 130.57 480.064 130.57C482.386 130.57 484.225 129.892 485.579 128.538C486.934 127.134 487.611 125.417 487.611 123.385C487.611 121.982 487.2 120.772 486.378 119.756C485.555 118.74 484.515 117.918 483.257 117.289C482.047 116.66 480.378 115.91 478.249 115.039C475.492 113.926 473.266 112.886 471.573 111.918C469.928 110.951 468.5 109.62 467.291 107.927C466.13 106.233 465.549 104.08 465.549 101.468C465.549 100.306 465.646 99.1694 465.839 98.0566C466.468 94.4279 468.452 91.5491 471.79 89.4203C475.177 87.2431 479.265 86.1545 484.055 86.1545C489.813 86.1545 494.143 87.485 497.046 90.1461C499.949 92.7587 501.473 96.218 501.618 100.524H490.587C490.635 98.6856 490.103 97.1857 488.99 96.0245C487.878 94.815 486.184 94.2102 483.91 94.2102C481.83 94.2102 480.112 94.7908 478.757 95.9519C477.403 97.0647 476.725 98.6614 476.725 100.742C476.725 102.097 477.112 103.234 477.887 104.153C478.709 105.024 479.701 105.749 480.862 106.33C482.023 106.911 483.668 107.636 485.797 108.507C488.555 109.572 490.78 110.588 492.474 111.555C494.216 112.475 495.691 113.805 496.901 115.547C498.159 117.289 498.788 119.514 498.788 122.224C498.788 123.094 498.667 124.256 498.425 125.707Z" fill="#5AFFBA"/>
</g>
<g style="mix-blend-mode:color-dodge" opacity="0.9">
<g style="mix-blend-mode:color-dodge">
<path d="M103.151 79.7515L104.906 80.061L105.275 77.9693H103.151V79.7515ZM97.853 109.797L96.0979 109.488L96.0965 109.496L96.0951 109.504L97.853 109.797ZM99.6674 119.74L98.4287 121.021L99.6674 119.74ZM114.11 118.869L115.324 120.173L115.332 120.165L115.34 120.158L114.11 118.869ZM118.391 109.797L120.145 110.114L120.146 110.106L118.391 109.797ZM123.689 79.7515V77.9693H122.194L121.934 79.442L123.689 79.7515ZM133.85 79.7515L135.605 80.0569L135.968 77.9693H133.85V79.7515ZM128.624 109.797L130.377 110.119L130.379 110.111L130.38 110.102L128.624 109.797ZM123.762 121.844L125.2 122.896L125.208 122.886L123.762 121.844ZM115.126 129.102L115.886 130.714L115.126 129.102ZM91.6843 127.432L90.4897 128.755L90.495 128.76L90.5002 128.764L91.6843 127.432ZM87.6927 109.797L89.4469 110.112L89.4478 110.106L87.6927 109.797ZM92.9906 79.7515V77.9693H91.4952L91.2355 79.442L92.9906 79.7515ZM101.396 79.442L96.0979 109.488L99.6081 110.106L104.906 80.061L101.396 79.442ZM96.0951 109.504C95.8435 111.013 95.708 112.351 95.708 113.498H99.2723C99.2723 112.613 99.3787 111.484 99.611 110.09L96.0951 109.504ZM95.708 113.498C95.708 116.557 96.5177 119.174 98.4287 121.021L100.906 118.458C99.9141 117.499 99.2723 115.955 99.2723 113.498H95.708ZM98.4287 121.021C100.319 122.848 102.934 123.626 105.981 123.626V120.062C103.513 120.062 101.919 119.437 100.906 118.458L98.4287 121.021ZM105.981 123.626C109.659 123.626 112.822 122.504 115.324 120.173L112.895 117.565C111.139 119.2 108.884 120.062 105.981 120.062V123.626ZM115.34 120.158C117.829 117.782 119.378 114.361 120.145 110.114L116.638 109.48C115.954 113.265 114.647 115.892 112.879 117.58L115.34 120.158ZM120.146 110.106L125.444 80.061L121.934 79.442L116.636 109.488L120.146 110.106ZM123.689 81.5337H133.85V77.9693H123.689V81.5337ZM132.094 79.4462L126.868 109.492L130.38 110.102L135.605 80.0569L132.094 79.4462ZM126.871 109.475C126.039 114.005 124.506 117.763 122.316 120.802L125.208 122.886C127.759 119.345 129.467 115.072 130.377 110.119L126.871 109.475ZM122.323 120.792C120.115 123.811 117.464 126.029 114.366 127.49L115.886 130.714C119.561 128.981 122.667 126.36 125.2 122.896L122.323 120.792ZM114.366 127.49C111.231 128.968 107.815 129.714 104.094 129.714V133.279C108.308 133.279 112.247 132.429 115.886 130.714L114.366 127.49ZM104.094 129.714C99.1792 129.714 95.5067 128.446 92.8683 126.1L90.5002 128.764C93.9581 131.838 98.5589 133.279 104.094 133.279V129.714ZM92.8788 126.11C90.3589 123.834 88.9669 120.39 88.9669 115.458H85.4025C85.4025 121.073 87.0102 125.612 90.4897 128.755L92.8788 126.11ZM88.9669 115.458C88.9669 113.678 89.1265 111.897 89.4469 110.112L85.9386 109.482C85.5815 111.471 85.4025 113.464 85.4025 115.458H88.9669ZM89.4478 110.106L94.7457 80.061L91.2355 79.442L85.9376 109.488L89.4478 110.106ZM92.9906 81.5337H103.151V77.9693H92.9906V81.5337ZM184.406 130.989V132.771H185.902L186.161 131.297L184.406 130.989ZM174.173 130.989L172.567 131.761L173.053 132.771H174.173V130.989ZM157.408 96.1532L159.014 95.3803L156.617 90.3997L155.653 95.8424L157.408 96.1532ZM151.239 130.989V132.771H152.734L152.994 131.299L151.239 130.989ZM141.007 130.989L139.251 130.68L138.884 132.771H141.007V130.989ZM150.006 79.7515V77.9693H148.509L148.25 79.4432L150.006 79.7515ZM160.239 79.7515L161.847 78.9839L161.363 77.9693H160.239V79.7515ZM177.003 114.877L175.395 115.645L177.795 120.673L178.758 115.185L177.003 114.877ZM183.172 79.7515V77.9693H181.675L181.417 79.4432L183.172 79.7515ZM193.405 79.7515L195.16 80.0598L195.527 77.9693H193.405V79.7515ZM184.406 129.206H174.173V132.771H184.406V129.206ZM175.779 130.216L159.014 95.3803L155.802 96.926L172.567 131.761L175.779 130.216ZM155.653 95.8424L149.485 130.678L152.994 131.299L159.163 96.4639L155.653 95.8424ZM151.239 129.206H141.007V132.771H151.239V129.206ZM142.762 131.297L151.761 80.0598L148.25 79.4432L139.251 130.68L142.762 131.297ZM150.006 81.5337H160.239V77.9693H150.006V81.5337ZM158.63 80.5191L175.395 115.645L178.611 114.11L161.847 78.9839L158.63 80.5191ZM178.758 115.185L184.927 80.0598L181.417 79.4432L175.248 114.569L178.758 115.185ZM183.172 81.5337H193.405V77.9693H183.172V81.5337ZM191.649 79.4432L182.65 130.68L186.161 131.297L195.16 80.0598L191.649 79.4432ZM241.273 83.235L240.102 84.5778L240.108 84.5839L240.116 84.5899L241.273 83.235ZM244.975 95.5726L243.227 95.2231L243.223 95.2442L243.219 95.2654L244.975 95.5726ZM239.967 105.297L238.718 104.026L238.713 104.031L238.707 104.037L239.967 105.297ZM229.734 110.523L229.373 108.778L227.196 109.228L228.109 111.255L229.734 110.523ZM238.951 130.989V132.771H241.708L240.576 130.257L238.951 130.989ZM227.629 130.989L225.99 131.686L226.451 132.771H227.629V130.989ZM219.138 111.031L220.778 110.333L220.317 109.249H219.138V111.031ZM214.639 111.031V109.249H213.141L212.883 110.724L214.639 111.031ZM211.155 130.989V132.771H212.653L212.911 131.295L211.155 130.989ZM200.922 130.989L199.167 130.68L198.8 132.771H200.922V130.989ZM209.922 79.7515V77.9693H208.425L208.166 79.4432L209.922 79.7515ZM234.451 96.2257L232.712 95.8391L232.703 95.8765L232.697 95.9141L234.451 96.2257ZM218.703 88.3878V86.6056H217.215L216.949 88.0697L218.703 88.3878ZM215.873 103.991L214.119 103.673L213.738 105.773H215.873V103.991ZM229.444 81.5337C234.44 81.5337 237.89 82.6478 240.102 84.5778L242.445 81.8923C239.335 79.1776 234.899 77.9693 229.444 77.9693V81.5337ZM240.116 84.5899C242.341 86.4916 243.483 89.0242 243.483 92.3793H247.047C247.047 88.0901 245.528 84.5264 242.431 81.8802L240.116 84.5899ZM243.483 92.3793C243.483 93.4431 243.394 94.3885 243.227 95.2231L246.722 95.9221C246.942 94.8213 247.047 93.6379 247.047 92.3793H243.483ZM243.219 95.2654C242.602 98.7903 241.099 101.688 238.718 104.026L241.216 106.569C244.157 103.681 245.992 100.096 246.73 95.8798L243.219 95.2654ZM238.707 104.037C236.378 106.366 233.299 107.965 229.373 108.778L230.095 112.268C234.588 111.338 238.33 109.454 241.227 106.558L238.707 104.037ZM228.109 111.255L237.326 131.72L240.576 130.257L231.359 109.791L228.109 111.255ZM238.951 129.206H227.629V132.771H238.951V129.206ZM229.269 130.291L220.778 110.333L217.498 111.728L225.99 131.686L229.269 130.291ZM219.138 109.249H214.639V112.813H219.138V109.249ZM212.883 110.724L209.4 130.682L212.911 131.295L216.394 111.337L212.883 110.724ZM211.155 129.206H200.922V132.771H211.155V129.206ZM202.678 131.297L211.677 80.0598L208.166 79.4432L199.167 130.68L202.678 131.297ZM209.922 81.5337H229.444V77.9693H209.922V81.5337ZM236.191 96.6123C236.331 95.9853 236.379 95.202 236.379 94.3388H232.814C232.814 95.1207 232.766 95.5953 232.712 95.8391L236.191 96.6123ZM236.379 94.3388C236.379 91.9588 235.611 89.893 233.838 88.4813C232.142 87.1312 229.802 86.6056 227.121 86.6056V90.17C229.424 90.17 230.822 90.6362 231.618 91.2698C232.336 91.8417 232.814 92.7515 232.814 94.3388H236.379ZM227.121 86.6056H218.703V90.17H227.121V86.6056ZM216.949 88.0697L214.119 103.673L217.626 104.309L220.456 88.7059L216.949 88.0697ZM215.873 105.773H224.291V102.209H215.873V105.773ZM224.291 105.773C227.466 105.773 230.202 105.072 232.304 103.466C234.43 101.841 235.688 99.4577 236.206 96.5373L232.697 95.9141C232.296 98.1707 231.4 99.6702 230.14 100.634C228.855 101.616 226.971 102.209 224.291 102.209V105.773ZM270.681 87.8798V86.0976H269.175L268.924 87.5821L270.681 87.8798ZM268.431 101.161L266.674 100.863L266.322 102.943H268.431V101.161ZM286.502 101.161L288.257 101.47L288.625 99.3786H286.502V101.161ZM285.123 108.999V110.781H286.619L286.878 109.307L285.123 108.999ZM266.98 108.999V107.217H265.48L265.224 108.694L266.98 108.999ZM264.585 122.788L262.829 122.483L262.466 124.57H264.585V122.788ZM284.905 122.788L286.66 123.098L287.031 121.006H284.905V122.788ZM283.454 130.989V132.771H284.948L285.209 131.299L283.454 130.989ZM252.9 130.989L251.145 130.68L250.778 132.771H252.9V130.989ZM261.9 79.7515V77.9693H260.403L260.144 79.4432L261.9 79.7515ZM292.453 79.7515L294.208 80.0648L294.582 77.9693H292.453V79.7515ZM291.002 87.8798V89.6619H292.494L292.756 88.1931L291.002 87.8798ZM268.924 87.5821L266.674 100.863L270.188 101.458L272.438 88.1774L268.924 87.5821ZM268.431 102.943H286.502V99.3786H268.431V102.943ZM284.747 100.852L283.368 108.69L286.878 109.307L288.257 101.47L284.747 100.852ZM285.123 107.217H266.98V110.781H285.123V107.217ZM265.224 108.694L262.829 122.483L266.341 123.093L268.736 109.304L265.224 108.694ZM264.585 124.57H284.905V121.006H264.585V124.57ZM283.151 122.477L281.699 130.678L285.209 131.299L286.66 123.098L283.151 122.477ZM283.454 129.206H252.9V132.771H283.454V129.206ZM254.656 131.297L263.655 80.0598L260.144 79.4432L251.145 130.68L254.656 131.297ZM261.9 81.5337H292.453V77.9693H261.9V81.5337ZM290.699 79.4382L289.247 87.5665L292.756 88.1931L294.208 80.0648L290.699 79.4382ZM291.002 86.0976H270.681V89.6619H291.002V86.0976ZM322.745 104.935L321.508 103.651L320.443 104.678L321.255 105.914L322.745 104.935ZM339.872 130.989V132.771H343.176L341.361 130.01L339.872 130.989ZM327.462 130.989L325.955 131.94L326.48 132.771H327.462V130.989ZM312.657 107.547L314.164 106.596L311.703 102.699L310.902 107.238L312.657 107.547ZM308.52 130.989V132.771H310.015L310.275 131.298L308.52 130.989ZM298.287 130.989L296.532 130.68L296.165 132.771H298.287V130.989ZM307.286 79.7515V77.9693H305.79L305.531 79.4432L307.286 79.7515ZM317.519 79.7515L319.275 80.0606L319.643 77.9693H317.519V79.7515ZM313.455 102.83L311.7 102.521L310.72 108.085L314.715 104.09L313.455 102.83ZM336.534 79.7515V77.9693H335.795L335.273 78.4913L336.534 79.7515ZM348.871 79.7515L350.108 81.0347L353.288 77.9693H348.871V79.7515ZM321.255 105.914L338.383 131.968L341.361 130.01L324.234 103.956L321.255 105.914ZM339.872 129.206H327.462V132.771H339.872V129.206ZM328.969 130.037L314.164 106.596L311.15 108.499L325.955 131.94L328.969 130.037ZM310.902 107.238L306.765 130.679L310.275 131.298L314.412 107.857L310.902 107.238ZM308.52 129.206H298.287V132.771H308.52V129.206ZM300.043 131.297L309.042 80.0598L305.531 79.4432L296.532 130.68L300.043 131.297ZM307.286 81.5337H317.519V77.9693H307.286V81.5337ZM315.764 79.4424L311.7 102.521L315.21 103.139L319.275 80.0606L315.764 79.4424ZM314.715 104.09L337.794 81.0117L335.273 78.4913L312.195 101.57L314.715 104.09ZM336.534 81.5337H348.871V77.9693H336.534V81.5337ZM347.634 78.4684L321.508 103.651L323.981 106.218L350.108 81.0347L347.634 78.4684ZM396.651 79.7515L398.406 80.0648L398.78 77.9693H396.651V79.7515ZM395.2 87.8798V89.6619H396.692L396.954 88.1931L395.2 87.8798ZM381.048 87.8798V86.0976H379.551L379.292 87.5724L381.048 87.8798ZM373.5 130.989V132.771H374.998L375.256 131.296L373.5 130.989ZM363.267 130.989L361.512 130.681L361.146 132.771H363.267V130.989ZM370.815 87.8798L372.571 88.1871L372.936 86.0976H370.815V87.8798ZM356.736 87.8798L354.981 87.5665L354.607 89.6619H356.736V87.8798ZM358.187 79.7515V77.9693H356.695L356.433 79.4382L358.187 79.7515ZM394.897 79.4382L393.445 87.5665L396.954 88.1931L398.406 80.0648L394.897 79.4382ZM395.2 86.0976H381.048V89.6619H395.2V86.0976ZM379.292 87.5724L371.745 130.681L375.256 131.296L382.803 88.1871L379.292 87.5724ZM373.5 129.206H363.267V132.771H373.5V129.206ZM365.023 131.296L372.571 88.1871L369.06 87.5724L361.512 130.681L365.023 131.296ZM370.815 86.0976H356.736V89.6619H370.815V86.0976ZM358.49 88.1931L359.942 80.0648L356.433 79.4382L354.981 87.5665L358.49 88.1931ZM358.187 81.5337H396.651V77.9693H358.187V81.5337ZM419.484 79.7515L421.239 80.061L421.608 77.9693H419.484V79.7515ZM414.186 109.797L412.431 109.488L412.43 109.496L412.428 109.504L414.186 109.797ZM416.001 119.74L414.762 121.021L416.001 119.74ZM430.443 118.869L431.658 120.173L431.666 120.165L431.673 120.158L430.443 118.869ZM434.725 109.797L436.478 110.114L436.48 110.106L434.725 109.797ZM440.023 79.7515V77.9693H438.527L438.267 79.442L440.023 79.7515ZM450.183 79.7515L451.939 80.0569L452.302 77.9693H450.183V79.7515ZM444.958 109.797L446.71 110.119L446.712 110.111L446.713 110.102L444.958 109.797ZM440.095 121.844L441.534 122.896L441.541 122.886L440.095 121.844ZM431.459 129.102L432.219 130.714L431.459 129.102ZM408.018 127.432L406.823 128.755L406.828 128.76L406.834 128.764L408.018 127.432ZM404.026 109.797L405.78 110.112L405.781 110.106L404.026 109.797ZM409.324 79.7515V77.9693H407.828L407.569 79.442L409.324 79.7515ZM417.729 79.442L412.431 109.488L415.941 110.106L421.239 80.061L417.729 79.442ZM412.428 109.504C412.177 111.013 412.041 112.351 412.041 113.498H415.606C415.606 112.613 415.712 111.484 415.944 110.09L412.428 109.504ZM412.041 113.498C412.041 116.557 412.851 119.174 414.762 121.021L417.239 118.458C416.247 117.499 415.606 115.955 415.606 113.498H412.041ZM414.762 121.021C416.652 122.848 419.267 123.626 422.315 123.626V120.062C419.847 120.062 418.252 119.437 417.239 118.458L414.762 121.021ZM422.315 123.626C425.992 123.626 429.155 122.504 431.658 120.173L429.228 117.565C427.473 119.2 425.217 120.062 422.315 120.062V123.626ZM431.673 120.158C434.163 117.782 435.711 114.361 436.478 110.114L432.971 109.48C432.287 113.265 430.981 115.892 429.212 117.58L431.673 120.158ZM436.48 110.106L441.778 80.061L438.267 79.442L432.97 109.488L436.48 110.106ZM440.023 81.5337H450.183V77.9693H440.023V81.5337ZM448.427 79.4462L443.202 109.492L446.713 110.102L451.939 80.0569L448.427 79.4462ZM443.205 109.475C442.373 114.005 440.839 117.763 438.649 120.802L441.541 122.886C444.093 119.345 445.801 115.072 446.71 110.119L443.205 109.475ZM438.657 120.792C436.449 123.811 433.797 126.029 430.699 127.49L432.219 130.714C435.894 128.981 439 126.36 441.534 122.896L438.657 120.792ZM430.699 127.49C427.564 128.968 424.148 129.714 420.428 129.714V133.279C424.642 133.279 428.58 132.429 432.219 130.714L430.699 127.49ZM420.428 129.714C415.512 129.714 411.84 128.446 409.202 126.1L406.834 128.764C410.291 131.838 414.892 133.279 420.428 133.279V129.714ZM409.212 126.11C406.692 123.834 405.3 120.39 405.3 115.458H401.736C401.736 121.073 403.344 125.612 406.823 128.755L409.212 126.11ZM405.3 115.458C405.3 113.678 405.46 111.897 405.78 110.112L402.272 109.482C401.915 111.471 401.736 113.464 401.736 115.458H405.3ZM405.781 110.106L411.079 80.061L407.569 79.442L402.271 109.488L405.781 110.106ZM409.324 81.5337H419.484V77.9693H409.324V81.5337ZM494.86 118.578L496.618 118.871L494.86 118.578ZM491.885 125.037L493.26 126.172L493.267 126.163L493.273 126.155L491.885 125.037ZM485.498 129.755L486.222 131.383L486.229 131.38L486.236 131.377L485.498 129.755ZM466.629 129.537L467.403 127.932L466.629 129.537ZM460.461 124.167L458.935 125.088L458.939 125.095L458.944 125.102L460.461 124.167ZM458.428 116.183V114.401H456.675L456.647 116.155L458.428 116.183ZM469.242 116.183L471.02 116.308L471.153 114.401H469.242V116.183ZM470.911 121.409L469.584 122.598L469.595 122.61L469.605 122.621L470.911 121.409ZM482.015 121.409L483.275 122.669L483.286 122.658L483.297 122.647L482.015 121.409ZM482.813 112.627L484.198 111.506L482.813 112.627ZM479.693 110.16L478.87 111.741L478.883 111.748L478.896 111.754L479.693 110.16ZM474.685 107.91L475.36 106.261L475.352 106.257L474.685 107.91ZM468.008 104.789L467.105 106.326L467.114 106.331L467.124 106.337L468.008 104.789ZM463.726 100.798L462.257 101.806L462.266 101.82L462.276 101.834L463.726 100.798ZM462.275 90.9279L464.031 91.2332L464.031 91.2322L462.275 90.9279ZM468.226 82.2916L469.184 83.7943L469.19 83.7907L468.226 82.2916ZM493.482 83.0173L492.277 84.3311L492.283 84.3366L492.289 84.342L493.482 83.0173ZM498.054 93.3954V95.1775H499.897L499.835 93.3353L498.054 93.3954ZM487.023 93.3954L485.241 93.3485L485.193 95.1775H487.023V93.3954ZM485.426 88.8958L484.114 90.1024L484.127 90.1158L484.139 90.1289L485.426 88.8958ZM475.193 88.8232L476.324 90.2004L476.339 90.1885L476.353 90.1764L475.193 88.8232ZM474.322 97.024L472.959 98.172L472.992 98.2108L473.026 98.2477L474.322 97.024ZM477.298 99.2013L476.501 100.795H476.501L477.298 99.2013ZM482.233 101.378L481.558 103.028L481.574 103.035L481.591 103.041L482.233 101.378ZM488.909 104.427L488.025 105.974L488.051 105.989L488.078 106.003L488.909 104.427ZM493.336 108.418L491.873 109.435L491.882 109.448L491.892 109.462L493.336 108.418ZM493.103 118.285C492.77 120.281 491.917 122.155 490.497 123.92L493.273 126.155C495.046 123.953 496.177 121.52 496.618 118.871L493.103 118.285ZM490.51 123.903C489.112 125.598 487.216 127.016 484.761 128.132L486.236 131.377C489.103 130.074 491.464 128.348 493.26 126.172L490.51 123.903ZM484.775 128.126C482.434 129.167 479.642 129.714 476.354 129.714V133.279C480.034 133.279 483.338 132.665 486.222 131.383L484.775 128.126ZM476.354 129.714C472.782 129.714 469.818 129.096 467.403 127.932L465.855 131.142C468.86 132.591 472.379 133.279 476.354 133.279V129.714ZM467.403 127.932C464.961 126.754 463.18 125.18 461.977 123.231L458.944 125.102C460.547 127.701 462.879 129.707 465.855 131.142L467.403 127.932ZM461.986 123.245C460.774 121.239 460.167 118.914 460.21 116.212L456.647 116.155C456.593 119.452 457.341 122.45 458.935 125.088L461.986 123.245ZM458.428 117.966H469.242V114.401H458.428V117.966ZM467.464 116.059C467.289 118.564 467.969 120.796 469.584 122.598L472.238 120.219C471.338 119.215 470.904 117.964 471.02 116.308L467.464 116.059ZM469.605 122.621C471.303 124.449 473.71 125.223 476.499 125.223V121.659C474.354 121.659 473.036 121.078 472.217 120.196L469.605 122.621ZM476.499 125.223C479.187 125.223 481.517 124.427 483.275 122.669L480.755 120.149C479.803 121.1 478.456 121.659 476.499 121.659V125.223ZM483.297 122.647C484.987 120.896 485.829 118.729 485.829 116.256H482.265C482.265 117.848 481.752 119.115 480.733 120.171L483.297 122.647ZM485.829 116.256C485.829 114.477 485.297 112.863 484.198 111.506L481.428 113.749C481.974 114.423 482.265 115.229 482.265 116.256H485.829ZM484.198 111.506C483.204 110.278 481.958 109.3 480.49 108.566L478.896 111.754C479.943 112.278 480.778 112.945 481.428 113.749L484.198 111.506ZM480.515 108.579C479.236 107.914 477.51 107.14 475.36 106.261L474.01 109.56C476.118 110.422 477.73 111.148 478.87 111.741L480.515 108.579ZM475.352 106.257C472.634 105.161 470.49 104.155 468.892 103.242L467.124 106.337C468.914 107.359 471.22 108.434 474.018 109.563L475.352 106.257ZM468.912 103.253C467.501 102.423 466.254 101.271 465.177 99.762L462.276 101.834C463.618 103.712 465.226 105.22 467.105 106.326L468.912 103.253ZM465.196 99.79C464.288 98.465 463.767 96.6896 463.767 94.3388H460.202C460.202 97.2134 460.843 99.744 462.257 101.806L465.196 99.79ZM463.767 94.3388C463.767 93.2771 463.855 92.2424 464.031 91.2332L460.519 90.6225C460.308 91.8389 460.202 93.0782 460.202 94.3388H463.767ZM464.031 91.2322C464.567 88.1375 466.233 85.6763 469.184 83.7943L467.268 80.7889C463.542 83.1645 461.24 86.4608 460.519 90.6235L464.031 91.2322ZM469.19 83.7907C472.238 81.8309 475.977 80.808 480.491 80.808V77.2436C475.425 77.2436 470.987 78.3979 467.262 80.7925L469.19 83.7907ZM480.491 80.808C486.006 80.808 489.827 82.085 492.277 84.3311L494.686 81.7036C491.33 78.6276 486.491 77.2436 480.491 77.2436V80.808ZM492.289 84.342C494.793 86.5955 496.142 89.5783 496.273 93.4554L499.835 93.3353C499.675 88.6004 497.976 84.6645 494.674 81.6926L492.289 84.342ZM498.054 91.6132H487.023V95.1775H498.054V91.6132ZM488.804 93.4422C488.863 91.2024 488.203 89.2175 486.713 87.6627L484.139 90.1289C484.875 90.8964 485.279 91.9113 485.241 93.3485L488.804 93.4422ZM486.737 87.6892C485.173 85.9891 482.921 85.2993 480.346 85.2993V88.8636C482.319 88.8636 483.453 89.3834 484.114 90.1024L486.737 87.6892ZM480.346 85.2993C477.914 85.2993 475.763 85.9871 474.033 87.4701L476.353 90.1764C477.332 89.337 478.616 88.8636 480.346 88.8636V85.2993ZM474.062 87.4461C472.217 88.9618 471.379 91.1098 471.379 93.6131H474.943C474.943 91.9555 475.46 90.9102 476.324 90.2004L474.062 87.4461ZM471.379 93.6131C471.379 95.331 471.88 96.8905 472.959 98.172L475.685 95.8761C475.216 95.3191 474.943 94.6046 474.943 93.6131H471.379ZM473.026 98.2477C474.004 99.2825 475.168 100.129 476.501 100.795L478.095 97.6072C477.104 97.1121 476.285 96.5073 475.618 95.8004L473.026 98.2477ZM476.501 100.795C477.721 101.405 479.414 102.151 481.558 103.028L482.907 99.729C480.794 98.8643 479.197 98.1582 478.095 97.6072L476.501 100.795ZM481.591 103.041C484.303 104.088 486.438 105.067 488.025 105.974L489.794 102.879C487.994 101.851 485.678 100.798 482.874 99.7158L481.591 103.041ZM488.078 106.003C489.548 106.779 490.813 107.909 491.873 109.435L494.8 107.402C493.441 105.444 491.755 103.913 489.741 102.85L488.078 106.003ZM491.892 109.462C492.879 110.828 493.441 112.662 493.441 115.095H497.006C497.006 112.109 496.31 109.491 494.781 107.375L491.892 109.462ZM493.441 115.095C493.441 115.824 493.338 116.874 493.103 118.285L496.618 118.871C496.867 117.379 497.006 116.108 497.006 115.095H493.441Z" fill="white"/>
</g>
</g>
</g>
<defs>
<filter id="filter0_d_727_43459" x="-12.3441" y="-5.07527" width="597.86" height="216.247" filterUnits="userSpaceOnUse" color-interpolation-filters="sRGB">
<feFlood flood-opacity="0" result="BackgroundImageFix"/>
<feColorMatrix in="SourceAlpha" type="matrix" values="0 0 0 0 0 0 0 0 0 0 0 0 0 0 0 0 0 0 127 0" result="hardAlpha"/>
<feOffset dx="-7.26882"/>
<feGaussianBlur stdDeviation="14.5376"/>
<feColorMatrix type="matrix" values="0 0 0 0 0.00833333 0 0 0 0 0.167 0 0 0 0 1 0 0 0 1 0"/>
<feBlend mode="normal" in2="BackgroundImageFix" result="effect1_dropShadow_727_43459"/>
<feBlend mode="normal" in="SourceGraphic" in2="effect1_dropShadow_727_43459" result="shape"/>
</filter>
<filter id="filter1_d_727_43459" x="22.1828" y="14.914" width="568.785" height="187.172" filterUnits="userSpaceOnUse" color-interpolation-filters="sRGB">
<feFlood flood-opacity="0" result="BackgroundImageFix"/>
<feColorMatrix in="SourceAlpha" type="matrix" values="0 0 0 0 0 0 0 0 0 0 0 0 0 0 0 0 0 0 127 0" result="hardAlpha"/>
<feOffset dx="3.63441"/>
<feGaussianBlur stdDeviation="7.26882"/>
<feColorMatrix type="matrix" values="0 0 0 0 1 0 0 0 0 1 0 0 0 0 0.180392 0 0 0 0.6 0"/>
<feBlend mode="normal" in2="BackgroundImageFix" result="effect1_dropShadow_727_43459"/>
<feBlend mode="normal" in="SourceGraphic" in2="effect1_dropShadow_727_43459" result="shape"/>
</filter>
<filter id="filter2_d_727_43459" x="22.1828" y="31.2688" width="554.247" height="172.634" filterUnits="userSpaceOnUse" color-interpolation-filters="sRGB">
<feFlood flood-opacity="0" result="BackgroundImageFix"/>
<feColorMatrix in="SourceAlpha" type="matrix" values="0 0 0 0 0 0 0 0 0 0 0 0 0 0 0 0 0 0 127 0" result="hardAlpha"/>
<feOffset dy="3.63441"/>
<feGaussianBlur stdDeviation="3.63441"/>
<feColorMatrix type="matrix" values="0 0 0 0 0.352941 0 0 0 0 1 0 0 0 0 0.960784 0 0 0 0.25 0"/>
<feBlend mode="normal" in2="BackgroundImageFix" result="effect1_dropShadow_727_43459"/>
<feBlend mode="normal" in="SourceGraphic" in2="effect1_dropShadow_727_43459" result="shape"/>
</filter>
<filter id="filter3_f_727_43459" x="0.462593" y="0.462593" width="587.075" height="212.817" filterUnits="userSpaceOnUse" color-interpolation-filters="sRGB">
<feFlood flood-opacity="0" result="BackgroundImageFix"/>
<feBlend mode="normal" in="SourceGraphic" in2="BackgroundImageFix" result="shape"/>
<feGaussianBlur stdDeviation="11.7687" result="effect1_foregroundBlur_727_43459"/>
</filter>
<filter id="filter4_d_727_43459" x="-11.6436" y="-4.51485" width="586.337" height="212.079" filterUnits="userSpaceOnUse" color-interpolation-filters="sRGB">
<feFlood flood-opacity="0" result="BackgroundImageFix"/>
<feColorMatrix in="SourceAlpha" type="matrix" values="0 0 0 0 0 0 0 0 0 0 0 0 0 0 0 0 0 0 127 0" result="hardAlpha"/>
<feOffset dx="-7.12871"/>
<feGaussianBlur stdDeviation="14.2574"/>
<feColorMatrix type="matrix" values="0 0 0 0 0.00833333 0 0 0 0 0.167 0 0 0 0 1 0 0 0 1 0"/>
<feBlend mode="normal" in2="BackgroundImageFix" result="effect1_dropShadow_727_43459"/>
<feBlend mode="normal" in="SourceGraphic" in2="effect1_dropShadow_727_43459" result="shape"/>
</filter>
<filter id="filter5_d_727_43459" x="22.2177" y="15.0891" width="557.822" height="183.564" filterUnits="userSpaceOnUse" color-interpolation-filters="sRGB">
<feFlood flood-opacity="0" result="BackgroundImageFix"/>
<feColorMatrix in="SourceAlpha" type="matrix" values="0 0 0 0 0 0 0 0 0 0 0 0 0 0 0 0 0 0 127 0" result="hardAlpha"/>
<feOffset dx="3.56436"/>
<feGaussianBlur stdDeviation="7.12871"/>
<feColorMatrix type="matrix" values="0 0 0 0 1 0 0 0 0 1 0 0 0 0 0.180392 0 0 0 0.6 0"/>
<feBlend mode="normal" in2="BackgroundImageFix" result="effect1_dropShadow_727_43459"/>
<feBlend mode="normal" in="SourceGraphic" in2="effect1_dropShadow_727_43459" result="shape"/>
</filter>
<filter id="filter6_d_727_43459" x="22.2178" y="31.1288" width="543.564" height="169.307" filterUnits="userSpaceOnUse" color-interpolation-filters="sRGB">
<feFlood flood-opacity="0" result="BackgroundImageFix"/>
<feColorMatrix in="SourceAlpha" type="matrix" values="0 0 0 0 0 0 0 0 0 0 0 0 0 0 0 0 0 0 127 0" result="hardAlpha"/>
<feOffset dy="3.56436"/>
<feGaussianBlur stdDeviation="3.56436"/>
<feColorMatrix type="matrix" values="0 0 0 0 0.352941 0 0 0 0 1 0 0 0 0 0.960784 0 0 0 0.25 0"/>
<feBlend mode="normal" in2="BackgroundImageFix" result="effect1_dropShadow_727_43459"/>
<feBlend mode="normal" in="SourceGraphic" in2="effect1_dropShadow_727_43459" result="shape"/>
</filter>
</defs>
</svg>
